<mxfile host="Electron" agent="Mozilla/5.0 (Windows NT 10.0; Win64; x64) AppleWebKit/537.36 (KHTML, like Gecko) draw.io/24.7.17 Chrome/128.0.6613.36 Electron/32.0.1 Safari/537.36" version="24.7.17">
  <diagram id="Ht1M8jgEwFfnCIfOTk4-" name="Page-1">
    <mxGraphModel dx="2760" dy="1078" grid="1" gridSize="10" guides="1" tooltips="1" connect="1" arrows="1" fold="1" page="1" pageScale="1" pageWidth="1169" pageHeight="827" background="#ffffff" math="0" shadow="0">
      <root>
        <mxCell id="0" />
        <mxCell id="1" parent="0" />
        <mxCell id="mKCqIFvBR12Fy3WNBB5l-85" value="AWS Infra" style="sketch=0;outlineConnect=0;gradientColor=none;html=1;whiteSpace=wrap;fontSize=12;fontStyle=0;shape=mxgraph.aws4.group;grIcon=mxgraph.aws4.group_vpc;strokeColor=#879196;fillColor=none;verticalAlign=top;align=left;spacingLeft=30;fontColor=#879196;dashed=0;" vertex="1" parent="1">
          <mxGeometry y="80" width="890" height="880" as="geometry" />
        </mxCell>
        <mxCell id="mKCqIFvBR12Fy3WNBB5l-3" value="VPC" style="sketch=0;outlineConnect=0;gradientColor=none;html=1;whiteSpace=wrap;fontSize=12;fontStyle=0;shape=mxgraph.aws4.group;grIcon=mxgraph.aws4.group_vpc;strokeColor=#879196;fillColor=none;verticalAlign=top;align=left;spacingLeft=30;fontColor=#879196;dashed=0;" vertex="1" parent="1">
          <mxGeometry x="280" y="260" width="480" height="500" as="geometry" />
        </mxCell>
        <mxCell id="mKCqIFvBR12Fy3WNBB5l-4" value="Private subnet" style="points=[[0,0],[0.25,0],[0.5,0],[0.75,0],[1,0],[1,0.25],[1,0.5],[1,0.75],[1,1],[0.75,1],[0.5,1],[0.25,1],[0,1],[0,0.75],[0,0.5],[0,0.25]];outlineConnect=0;gradientColor=none;html=1;whiteSpace=wrap;fontSize=12;fontStyle=0;container=1;pointerEvents=0;collapsible=0;recursiveResize=0;shape=mxgraph.aws4.group;grIcon=mxgraph.aws4.group_security_group;grStroke=0;strokeColor=#00A4A6;fillColor=#E6F6F7;verticalAlign=top;align=left;spacingLeft=30;fontColor=#147EBA;dashed=0;" vertex="1" parent="1">
          <mxGeometry x="340" y="300" width="380" height="200" as="geometry" />
        </mxCell>
        <mxCell id="mKCqIFvBR12Fy3WNBB5l-34" value="Amazon RDS" style="sketch=0;outlineConnect=0;fontColor=#232F3E;gradientColor=none;strokeColor=#ffffff;fillColor=#232F3E;dashed=0;verticalLabelPosition=middle;verticalAlign=bottom;align=center;html=1;whiteSpace=wrap;fontSize=10;fontStyle=1;spacing=3;shape=mxgraph.aws4.productIcon;prIcon=mxgraph.aws4.rds;" vertex="1" parent="mKCqIFvBR12Fy3WNBB5l-4">
          <mxGeometry x="260" y="50" width="80" height="100" as="geometry" />
        </mxCell>
        <mxCell id="mKCqIFvBR12Fy3WNBB5l-5" value="Public subnet" style="points=[[0,0],[0.25,0],[0.5,0],[0.75,0],[1,0],[1,0.25],[1,0.5],[1,0.75],[1,1],[0.75,1],[0.5,1],[0.25,1],[0,1],[0,0.75],[0,0.5],[0,0.25]];outlineConnect=0;gradientColor=none;html=1;whiteSpace=wrap;fontSize=12;fontStyle=0;container=1;pointerEvents=0;collapsible=0;recursiveResize=0;shape=mxgraph.aws4.group;grIcon=mxgraph.aws4.group_security_group;grStroke=0;strokeColor=#7AA116;fillColor=#F2F6E8;verticalAlign=top;align=left;spacingLeft=30;fontColor=#248814;dashed=0;" vertex="1" parent="1">
          <mxGeometry x="340" y="530" width="200" height="200" as="geometry" />
        </mxCell>
        <mxCell id="mKCqIFvBR12Fy3WNBB5l-6" value="" style="sketch=0;outlineConnect=0;fontColor=#232F3E;gradientColor=none;fillColor=#8C4FFF;strokeColor=none;dashed=0;verticalLabelPosition=bottom;verticalAlign=top;align=center;html=1;fontSize=12;fontStyle=0;aspect=fixed;pointerEvents=1;shape=mxgraph.aws4.nat_gateway;" vertex="1" parent="mKCqIFvBR12Fy3WNBB5l-5">
          <mxGeometry x="61" y="60" width="78" height="78" as="geometry" />
        </mxCell>
        <mxCell id="mKCqIFvBR12Fy3WNBB5l-36" style="edgeStyle=orthogonalEdgeStyle;rounded=0;orthogonalLoop=1;jettySize=auto;html=1;exitX=1;exitY=0.5;exitDx=0;exitDy=0;" edge="1" parent="1" source="mKCqIFvBR12Fy3WNBB5l-14" target="mKCqIFvBR12Fy3WNBB5l-34">
          <mxGeometry relative="1" as="geometry" />
        </mxCell>
        <mxCell id="mKCqIFvBR12Fy3WNBB5l-20" style="edgeStyle=orthogonalEdgeStyle;rounded=0;orthogonalLoop=1;jettySize=auto;html=1;" edge="1" parent="1" source="mKCqIFvBR12Fy3WNBB5l-15" target="mKCqIFvBR12Fy3WNBB5l-6">
          <mxGeometry relative="1" as="geometry" />
        </mxCell>
        <mxCell id="mKCqIFvBR12Fy3WNBB5l-19" value="NAT Gateway" style="text;html=1;align=center;verticalAlign=middle;whiteSpace=wrap;rounded=0;" vertex="1" parent="1">
          <mxGeometry x="395" y="668" width="90" height="30" as="geometry" />
        </mxCell>
        <mxCell id="mKCqIFvBR12Fy3WNBB5l-21" style="edgeStyle=orthogonalEdgeStyle;rounded=0;orthogonalLoop=1;jettySize=auto;html=1;entryX=0.5;entryY=1;entryDx=0;entryDy=0;" edge="1" parent="1" source="mKCqIFvBR12Fy3WNBB5l-6" target="mKCqIFvBR12Fy3WNBB5l-14">
          <mxGeometry relative="1" as="geometry" />
        </mxCell>
        <mxCell id="mKCqIFvBR12Fy3WNBB5l-31" style="edgeStyle=orthogonalEdgeStyle;rounded=0;orthogonalLoop=1;jettySize=auto;html=1;entryX=0;entryY=0.5;entryDx=0;entryDy=0;" edge="1" parent="1" source="mKCqIFvBR12Fy3WNBB5l-22" target="mKCqIFvBR12Fy3WNBB5l-14">
          <mxGeometry relative="1" as="geometry" />
        </mxCell>
        <mxCell id="mKCqIFvBR12Fy3WNBB5l-22" value="" style="sketch=0;outlineConnect=0;fontColor=#232F3E;gradientColor=none;fillColor=#8C4FFF;strokeColor=none;dashed=0;verticalLabelPosition=bottom;verticalAlign=top;align=center;html=1;fontSize=12;fontStyle=0;aspect=fixed;pointerEvents=1;shape=mxgraph.aws4.vpn_gateway;" vertex="1" parent="1">
          <mxGeometry x="240" y="361" width="78" height="78" as="geometry" />
        </mxCell>
        <mxCell id="mKCqIFvBR12Fy3WNBB5l-27" value="VPN Gateway" style="text;html=1;align=center;verticalAlign=middle;whiteSpace=wrap;rounded=0;" vertex="1" parent="1">
          <mxGeometry x="228.5" y="439" width="101" height="30" as="geometry" />
        </mxCell>
        <mxCell id="mKCqIFvBR12Fy3WNBB5l-30" style="edgeStyle=orthogonalEdgeStyle;rounded=0;orthogonalLoop=1;jettySize=auto;html=1;exitX=1;exitY=0.5;exitDx=0;exitDy=0;exitPerimeter=0;" edge="1" parent="1" source="mKCqIFvBR12Fy3WNBB5l-28" target="mKCqIFvBR12Fy3WNBB5l-22">
          <mxGeometry relative="1" as="geometry" />
        </mxCell>
        <mxCell id="mKCqIFvBR12Fy3WNBB5l-41" value="" style="group" vertex="1" connectable="0" parent="1">
          <mxGeometry x="218.5" y="590" width="121" height="108" as="geometry" />
        </mxCell>
        <mxCell id="mKCqIFvBR12Fy3WNBB5l-15" value="" style="sketch=0;outlineConnect=0;fontColor=#232F3E;gradientColor=none;fillColor=#8C4FFF;strokeColor=none;dashed=0;verticalLabelPosition=bottom;verticalAlign=top;align=center;html=1;fontSize=12;fontStyle=0;aspect=fixed;pointerEvents=1;shape=mxgraph.aws4.internet_gateway;" vertex="1" parent="mKCqIFvBR12Fy3WNBB5l-41">
          <mxGeometry x="21.5" width="78" height="78" as="geometry" />
        </mxCell>
        <mxCell id="mKCqIFvBR12Fy3WNBB5l-18" value="Internet Gateway" style="text;html=1;align=center;verticalAlign=middle;whiteSpace=wrap;rounded=0;" vertex="1" parent="mKCqIFvBR12Fy3WNBB5l-41">
          <mxGeometry y="78" width="121" height="30" as="geometry" />
        </mxCell>
        <mxCell id="mKCqIFvBR12Fy3WNBB5l-56" value="AWS Backup" style="sketch=0;points=[[0,0,0],[0.25,0,0],[0.5,0,0],[0.75,0,0],[1,0,0],[0,1,0],[0.25,1,0],[0.5,1,0],[0.75,1,0],[1,1,0],[0,0.25,0],[0,0.5,0],[0,0.75,0],[1,0.25,0],[1,0.5,0],[1,0.75,0]];outlineConnect=0;fontColor=#232F3E;fillColor=#7AA116;strokeColor=#ffffff;dashed=0;verticalLabelPosition=bottom;verticalAlign=top;align=center;html=1;fontSize=12;fontStyle=0;aspect=fixed;shape=mxgraph.aws4.resourceIcon;resIcon=mxgraph.aws4.backup;" vertex="1" parent="1">
          <mxGeometry x="790" y="240" width="78" height="78" as="geometry" />
        </mxCell>
        <mxCell id="mKCqIFvBR12Fy3WNBB5l-79" style="edgeStyle=orthogonalEdgeStyle;rounded=0;orthogonalLoop=1;jettySize=auto;html=1;" edge="1" parent="1" source="mKCqIFvBR12Fy3WNBB5l-60" target="mKCqIFvBR12Fy3WNBB5l-66">
          <mxGeometry relative="1" as="geometry">
            <Array as="points">
              <mxPoint x="750" y="835" />
              <mxPoint x="750" y="835" />
            </Array>
          </mxGeometry>
        </mxCell>
        <mxCell id="mKCqIFvBR12Fy3WNBB5l-60" value="Amazon CloudWatch" style="sketch=0;outlineConnect=0;fontColor=#232F3E;gradientColor=none;strokeColor=#ffffff;fillColor=#232F3E;dashed=0;verticalLabelPosition=middle;verticalAlign=bottom;align=center;html=1;whiteSpace=wrap;fontSize=10;fontStyle=1;spacing=3;shape=mxgraph.aws4.productIcon;prIcon=mxgraph.aws4.cloudwatch;" vertex="1" parent="1">
          <mxGeometry x="580" y="780" width="80" height="110" as="geometry" />
        </mxCell>
        <mxCell id="mKCqIFvBR12Fy3WNBB5l-61" style="edgeStyle=orthogonalEdgeStyle;rounded=0;orthogonalLoop=1;jettySize=auto;html=1;dashed=1;" edge="1" parent="1" source="mKCqIFvBR12Fy3WNBB5l-34" target="mKCqIFvBR12Fy3WNBB5l-60">
          <mxGeometry relative="1" as="geometry">
            <Array as="points">
              <mxPoint x="660" y="800" />
            </Array>
          </mxGeometry>
        </mxCell>
        <mxCell id="mKCqIFvBR12Fy3WNBB5l-63" style="edgeStyle=orthogonalEdgeStyle;rounded=0;orthogonalLoop=1;jettySize=auto;html=1;dashed=1;" edge="1" parent="1" source="mKCqIFvBR12Fy3WNBB5l-6" target="mKCqIFvBR12Fy3WNBB5l-60">
          <mxGeometry relative="1" as="geometry">
            <Array as="points">
              <mxPoint x="510" y="629" />
              <mxPoint x="510" y="835" />
            </Array>
          </mxGeometry>
        </mxCell>
        <mxCell id="mKCqIFvBR12Fy3WNBB5l-66" value="Amazon S3" style="sketch=0;outlineConnect=0;fontColor=#232F3E;gradientColor=none;strokeColor=#ffffff;fillColor=#232F3E;dashed=0;verticalLabelPosition=middle;verticalAlign=bottom;align=center;html=1;whiteSpace=wrap;fontSize=10;fontStyle=1;spacing=3;shape=mxgraph.aws4.productIcon;prIcon=mxgraph.aws4.s3;" vertex="1" parent="1">
          <mxGeometry x="780" y="780" width="80" height="100" as="geometry" />
        </mxCell>
        <mxCell id="mKCqIFvBR12Fy3WNBB5l-70" style="edgeStyle=orthogonalEdgeStyle;rounded=0;orthogonalLoop=1;jettySize=auto;html=1;" edge="1" parent="1" source="mKCqIFvBR12Fy3WNBB5l-68">
          <mxGeometry relative="1" as="geometry">
            <mxPoint x="240" y="630" as="targetPoint" />
          </mxGeometry>
        </mxCell>
        <mxCell id="mKCqIFvBR12Fy3WNBB5l-68" value="AWS WAF" style="sketch=0;outlineConnect=0;fontColor=#232F3E;gradientColor=none;strokeColor=#ffffff;fillColor=#232F3E;dashed=0;verticalLabelPosition=middle;verticalAlign=bottom;align=center;html=1;whiteSpace=wrap;fontSize=10;fontStyle=1;spacing=3;shape=mxgraph.aws4.productIcon;prIcon=mxgraph.aws4.waf;" vertex="1" parent="1">
          <mxGeometry x="130" y="580" width="80" height="100" as="geometry" />
        </mxCell>
        <mxCell id="mKCqIFvBR12Fy3WNBB5l-72" style="edgeStyle=orthogonalEdgeStyle;rounded=0;orthogonalLoop=1;jettySize=auto;html=1;" edge="1" parent="1" source="mKCqIFvBR12Fy3WNBB5l-71" target="mKCqIFvBR12Fy3WNBB5l-14">
          <mxGeometry relative="1" as="geometry">
            <Array as="points">
              <mxPoint x="560" y="170" />
              <mxPoint x="560" y="380" />
            </Array>
          </mxGeometry>
        </mxCell>
        <mxCell id="mKCqIFvBR12Fy3WNBB5l-73" style="edgeStyle=orthogonalEdgeStyle;rounded=0;orthogonalLoop=1;jettySize=auto;html=1;" edge="1" parent="1" source="mKCqIFvBR12Fy3WNBB5l-71" target="mKCqIFvBR12Fy3WNBB5l-34">
          <mxGeometry relative="1" as="geometry" />
        </mxCell>
        <mxCell id="mKCqIFvBR12Fy3WNBB5l-71" value="AWS Key Management Service" style="sketch=0;outlineConnect=0;fontColor=#232F3E;gradientColor=none;strokeColor=#ffffff;fillColor=#232F3E;dashed=0;verticalLabelPosition=middle;verticalAlign=bottom;align=center;html=1;whiteSpace=wrap;fontSize=10;fontStyle=1;spacing=3;shape=mxgraph.aws4.productIcon;prIcon=mxgraph.aws4.key_management_service;" vertex="1" parent="1">
          <mxGeometry x="600" y="130" width="80" height="120" as="geometry" />
        </mxCell>
        <mxCell id="mKCqIFvBR12Fy3WNBB5l-78" style="edgeStyle=orthogonalEdgeStyle;rounded=0;orthogonalLoop=1;jettySize=auto;html=1;startArrow=classic;startFill=1;" edge="1" parent="1" source="mKCqIFvBR12Fy3WNBB5l-76" target="mKCqIFvBR12Fy3WNBB5l-3">
          <mxGeometry relative="1" as="geometry">
            <Array as="points">
              <mxPoint x="358" y="770" />
              <mxPoint x="358" y="770" />
            </Array>
          </mxGeometry>
        </mxCell>
        <mxCell id="mKCqIFvBR12Fy3WNBB5l-76" value="Amazon GuardDuty" style="sketch=0;outlineConnect=0;fontColor=#232F3E;gradientColor=none;strokeColor=#ffffff;fillColor=#232F3E;dashed=0;verticalLabelPosition=middle;verticalAlign=bottom;align=center;html=1;whiteSpace=wrap;fontSize=10;fontStyle=1;spacing=3;shape=mxgraph.aws4.productIcon;prIcon=mxgraph.aws4.guardduty;" vertex="1" parent="1">
          <mxGeometry x="318" y="800" width="80" height="110" as="geometry" />
        </mxCell>
        <mxCell id="mKCqIFvBR12Fy3WNBB5l-81" style="edgeStyle=orthogonalEdgeStyle;rounded=0;orthogonalLoop=1;jettySize=auto;html=1;startArrow=classic;startFill=1;" edge="1" parent="1" source="mKCqIFvBR12Fy3WNBB5l-77" target="mKCqIFvBR12Fy3WNBB5l-3">
          <mxGeometry relative="1" as="geometry">
            <Array as="points">
              <mxPoint x="340" y="260" />
              <mxPoint x="340" y="260" />
            </Array>
          </mxGeometry>
        </mxCell>
        <mxCell id="mKCqIFvBR12Fy3WNBB5l-77" value="AWS Config" style="sketch=0;outlineConnect=0;fontColor=#232F3E;gradientColor=none;strokeColor=#ffffff;fillColor=#232F3E;dashed=0;verticalLabelPosition=middle;verticalAlign=bottom;align=center;html=1;whiteSpace=wrap;fontSize=10;fontStyle=1;spacing=3;shape=mxgraph.aws4.productIcon;prIcon=mxgraph.aws4.config;" vertex="1" parent="1">
          <mxGeometry x="300" y="120" width="80" height="100" as="geometry" />
        </mxCell>
        <mxCell id="mKCqIFvBR12Fy3WNBB5l-83" style="edgeStyle=orthogonalEdgeStyle;rounded=0;orthogonalLoop=1;jettySize=auto;html=1;" edge="1" parent="1" source="mKCqIFvBR12Fy3WNBB5l-82" target="mKCqIFvBR12Fy3WNBB5l-14">
          <mxGeometry relative="1" as="geometry">
            <Array as="points">
              <mxPoint x="490" y="310" />
              <mxPoint x="490" y="310" />
            </Array>
          </mxGeometry>
        </mxCell>
        <mxCell id="mKCqIFvBR12Fy3WNBB5l-82" value="AWS Systems Manager" style="sketch=0;outlineConnect=0;fontColor=#232F3E;gradientColor=none;strokeColor=#ffffff;fillColor=#232F3E;dashed=0;verticalLabelPosition=middle;verticalAlign=bottom;align=center;html=1;whiteSpace=wrap;fontSize=10;fontStyle=1;spacing=3;shape=mxgraph.aws4.productIcon;prIcon=mxgraph.aws4.systems_manager;" vertex="1" parent="1">
          <mxGeometry x="440" y="120" width="80" height="110" as="geometry" />
        </mxCell>
        <mxCell id="mKCqIFvBR12Fy3WNBB5l-87" value="" style="group" vertex="1" connectable="0" parent="1">
          <mxGeometry x="375" y="335" width="130" height="130" as="geometry" />
        </mxCell>
        <mxCell id="mKCqIFvBR12Fy3WNBB5l-13" value="AD for&lt;div&gt;Authentication&lt;/div&gt;" style="text;html=1;align=center;verticalAlign=middle;whiteSpace=wrap;rounded=0;" vertex="1" parent="mKCqIFvBR12Fy3WNBB5l-87">
          <mxGeometry x="35" y="84" width="60" height="30" as="geometry" />
        </mxCell>
        <mxCell id="mKCqIFvBR12Fy3WNBB5l-86" value="" style="group" vertex="1" connectable="0" parent="mKCqIFvBR12Fy3WNBB5l-87">
          <mxGeometry width="130" height="130" as="geometry" />
        </mxCell>
        <mxCell id="mKCqIFvBR12Fy3WNBB5l-7" value="" style="image;sketch=0;aspect=fixed;html=1;points=[];align=center;fontSize=12;image=img/lib/mscae/Active_Directory.svg;" vertex="1" parent="mKCqIFvBR12Fy3WNBB5l-86">
          <mxGeometry x="40" y="35" width="50" height="50" as="geometry" />
        </mxCell>
        <mxCell id="mKCqIFvBR12Fy3WNBB5l-14" value="EC2 instance" style="points=[[0,0],[0.25,0],[0.5,0],[0.75,0],[1,0],[1,0.25],[1,0.5],[1,0.75],[1,1],[0.75,1],[0.5,1],[0.25,1],[0,1],[0,0.75],[0,0.5],[0,0.25]];outlineConnect=0;gradientColor=none;html=1;whiteSpace=wrap;fontSize=12;fontStyle=0;container=1;pointerEvents=0;collapsible=0;recursiveResize=0;shape=mxgraph.aws4.group;grIcon=mxgraph.aws4.group_ec2_instance_contents;strokeColor=#D86613;fillColor=none;verticalAlign=top;align=left;spacingLeft=30;fontColor=#D86613;dashed=0;" vertex="1" parent="mKCqIFvBR12Fy3WNBB5l-86">
          <mxGeometry width="130" height="130" as="geometry" />
        </mxCell>
        <mxCell id="mKCqIFvBR12Fy3WNBB5l-91" style="edgeStyle=orthogonalEdgeStyle;rounded=0;orthogonalLoop=1;jettySize=auto;html=1;exitX=0.75;exitY=1;exitDx=0;exitDy=0;dashed=1;" edge="1" parent="1" source="mKCqIFvBR12Fy3WNBB5l-14" target="mKCqIFvBR12Fy3WNBB5l-60">
          <mxGeometry relative="1" as="geometry">
            <Array as="points">
              <mxPoint x="473" y="510" />
              <mxPoint x="550" y="510" />
              <mxPoint x="550" y="800" />
            </Array>
          </mxGeometry>
        </mxCell>
        <mxCell id="mKCqIFvBR12Fy3WNBB5l-92" style="edgeStyle=orthogonalEdgeStyle;rounded=0;orthogonalLoop=1;jettySize=auto;html=1;exitX=1;exitY=0.25;exitDx=0;exitDy=0;entryX=0;entryY=0.5;entryDx=0;entryDy=0;entryPerimeter=0;fillColor=#f8cecc;strokeColor=#b85450;strokeWidth=2;" edge="1" parent="1" source="mKCqIFvBR12Fy3WNBB5l-14" target="mKCqIFvBR12Fy3WNBB5l-56">
          <mxGeometry relative="1" as="geometry">
            <Array as="points">
              <mxPoint x="530" y="367" />
              <mxPoint x="530" y="320" />
              <mxPoint x="720" y="320" />
              <mxPoint x="720" y="279" />
            </Array>
          </mxGeometry>
        </mxCell>
        <mxCell id="mKCqIFvBR12Fy3WNBB5l-93" style="edgeStyle=orthogonalEdgeStyle;rounded=0;orthogonalLoop=1;jettySize=auto;html=1;fillColor=#f8cecc;strokeColor=#b85450;strokeWidth=2;" edge="1" parent="1" source="mKCqIFvBR12Fy3WNBB5l-34" target="mKCqIFvBR12Fy3WNBB5l-56">
          <mxGeometry relative="1" as="geometry" />
        </mxCell>
        <mxCell id="mKCqIFvBR12Fy3WNBB5l-94" value="" style="shape=image;verticalLabelPosition=bottom;labelBackgroundColor=default;verticalAlign=top;aspect=fixed;imageAspect=0;image=data:image/png,iVBORw0KGgoAAAANSUhEUgAAANcAAACZCAYAAAC8L6+pAAAAAXNSR0IArs4c6QAAAARnQU1BAACxjwv8YQUAAAAJcEhZcwAADsMAAA7DAcdvqGQAAFigSURBVHhe7b0HnF3HdeZ5Xg6dE7qRM0AwgBGMYrQSRVkjOczYVrBljeXVWlqn3+6MZz32rL1ej0ae8dhjrbWWLFtZHMmSLCpSpGRmMecEkARA5G50Nzq8fvm9/f51XzUumiABgd0QAd7TXe/WrVv5nq/OOXXr1o01RRZRRBHNO8Vbx4giimieKQJXRBEtEEXgiiiiBaIIXBFFtEAUgSuiiBaIInBFFNECUQSuiCJaIIrAFVFEC0QRuCKKaIEoAldEES0QReCKKKIFoghcEUW0QBSBK6KIFogicEUU0QJRBK6IIlogit7niugESWwD58SCs7nUbF04+mUSNgKviyHXDMX0HNkK8pea7oIv9HD8wOcTha8cnXzdPL1sfF9Ui+ZU65gUSa6ITowcp+nHjc1zHeSPc2g2GA8Aw7UCOYSThfz+UkO/3n/YzT078vxIF/bNoXA0H+GoEY+PIskV0YnRLKhERwzl/uRlxnfPbbp8PIxHnOOVFJ6OHT9Ud0/udG7K1vlPWoEWReCK6MToqODynpfhxhCnzaZW1FCwyEuyIDTm/uLudzb4ZbJ/2fCXkJeY5BlONDcDnR8R9EqFv5QicEV04gTrvITXXo75FHeW00JxZr11Oc/0kGdkLBdc4nD62XzmULjokP9o0eeG+ejhLAIippyHSczX6dgUgSuiEyc456Xc+DLUYlJHSuQlRowwDypcOB5MTDwBy7ngiksyy+z4A+9sXfyxRf6yJyY05oZBc5MHR2KqXq48nOoU8/V6ZYrAFdFJIs+cnjxz+rAjmTUIPRIE4RzC4dCRgAiO4RyPyL2JlCQHH2uOJDoy8hzn4x8R6agUgSuik0SeOT15v2fwgFnDscKxPRGGfAMeYQrn4l0YAu7oMuSnpgM5tGLNSqJQbO91RBrvWmmOg+YFXGQRky7KsdFoOD8uTK9HDPs+CPdPPB7cGN8fc/vpVCF/N1+u9rQv3F5HrTa7RA0PD53QB47Bg3zn5u3UQEf+qvjMBRLDx4KQdJz7BMFZ4GYzCcid+rQqO5yNiKo2XBHcu7lwmhP5ZWjewPWSjgyRv/56JAYb+gXn++CV+upUIX83j4/NAqLds4MJfeF5ogUsiJDZ8cZd5sfH9Q4ikpyLGzqKDscCXMEZR/fHaSzFDxEcEabb5EK4LeHxLsgnuBZUV/cuHOEVaN7ABfmOq1QqViwWHWPNQ/anNNEnyWTSgSmXy7kw+oTzU1VqnQjBBbOsoGaj2nliqiKYpMC1uJwTEsyKLQXi51pTKRry+EsQfUkQ13EiwMRvcBr4g9+kC4FaUR3N+lv5UrzzAjgXEhzDaV6J5tXm8llNTU1ZqVSyVIoR4vVLvj84MuD09va6Pgl3uZdgpxvQ6vXApnHtkuPgW82xqh+A4OcB3VwgF+gbB7BWf+jYlAOM3rn4rczIo+UNkgdeR+TQyuUIQPh43IeYykrEE63rCkVdDdlg5E+Zngg9LGdfmeZVckH4JyYm3LG7uzvo3Ncx0Q9I8dHRUdcfgMtLMvrG98+p109HYZvZ6XX8wdHH4hhOIasJ1pWPSDC5VOdWH9ThZnkBYE3eqvwVjgrn3LFbKzNSBKl0VBiMD/iS8qTk8McJlyMsIYctFVcAkHV1IENvAwIspyPqGFNqOQ8wxXJl6cpsma9ECyK5xsbG3JGRGnq9AwwpPjw8bNls1oErk8lYOp22REI3DsY6JQHGvQ6xjgPWkfXnal2c7GKqbS0h7c4rLVsUvwOQPGXx99SM2WSxaYVyzUq1hs3IlSUFS1WdV6sCWE15NgQQwVNpYDkxsUqOCUhyKielfs1qAMskE86lhahsSmHq85wQ191ulkubwswyqrKThHIoi65GLT4O2hMMAS5Epy9t5cvTvIMLNz4+7jqup6endeX1SfQF6lFVTHHgwAEHHoCF7cUxLMGgUwtc4bHck/xh6SXyjOkdqSr6qQpoIwWzvWM12zM+bcOFqo1JPE01UlZoJGyiLGApYkniqi6A1SXOGjWhT31KNwULeAGYcuU/VA0kYCKOk3UlYKUFqGw6ZTn1eVs6bu31GeuK16w7n7G+zrwNdWVtUYdZX96sQwgT7gyDxllmruK+rSIn0UKFvQLNG7j85AUOtZBRuaur6xRjmIUhJNeePXusVqtZPp+3jo4OBy6kWNjmCvcV/fja7jsYDifpKyQFNYWVgpEeaYSr6GRaoDkkII1Pl2z80KQdmqnanlH5Z2o2Va7ajLKZqjdtslK3YjNh9UTK6rGkVap1x9cp9VEmkbS0k0ZJS0oK4WICkO+jutQ6AMixyoBWqyo9riIASv1THglJsaTip6pla9N5Pp2UhCNvs06Jsf72rPXkUrakv9O6swlb1J60Xkm5tkwg4ZJqi5tTAV8U6prLDzAPpDDhQY24NE/ggsgKBgJcjMrYGBEF4Nq9e7c7tre3OwfIPLjC0uuUIR7CimkbMYAQ2DRx3f+62gGgDpbM9kyYvSgQ7Zus2a6JiqRUwSZmSlYTgEpVJj3E9M2qxetlIbEoBq6JmVM20NVmKxf326KeDhvqazcdBILAZsI5U6glQBiaXM8JhHAyTjg1CTsrqYrTynp8umnD4xO2/+CojlO282DRpqoCsSpel3yqpXLWTGalUiaVV8xJugHVY3l7whZLlC3uydrqgZSt6DKBLpBqKdrrHoSpkAQWZFI+lhi36qSKROBaYKJPyuWy7dq16yXgwu46dcEluSRwleNpk1CSpBAzS0LtPFCyveMF2zVesX0TZRsem7SxQtlm6gkHxEQq6WyizracdeQyNtjXZcsXZWz5gNlisUu/pIS0M6eaOTtI3OltInoIbkVeNsXBMDHkpIljYznph9h3qInM1iM9xf6zR2HeinIHdbJvv9muAw0NAFN24NCMTUyWbbpUs1oiZtXSjGWrJeuQGpnPSYK1CVw97bakL2crhjptleqcUR69baprjBodKbkYbCJwnQRithBwcUQlBFxtbW2nNrgaEj0C1/5qxp4ZN9s+XLHnD0zYtv0CUykmlU9qmtgs35ixNrH0oo6UrVnSZ+tXDNnS3rSJP2X/SCLJJdV07BucA4pTBXUSMKhyQelqkeI2JbZq4e4ing50Icd6i6WDlC0wks6FBuc+DT/MRBYElKkpswmhb8d42Z7Zvte2vbDHRqZrNmkZgTNlqXTO2gFaR9pW9XfZhqFe29hvtmmgbl3SLZOon6qbLycC10kgQPXiiy8eIblwpzS46rJlpH/9aEfFvvv4sG3dPWIT0gfjspcsLlsml7fu9rydubzHLtrYZmsHzaTdOQkkzcqSYuaMEOObLb4MwMG5OLKpADc1D9och7pAPKJkAJjgRMDBPnU+d65Erd/gCLlsuSwnU01HVcBFl2qYiLv8mI0vyTOjSiIZpVHatmGz+7dO2ZPP77IDknDFWtOqSlMr16yvvcu2LE/aGzdm1MYV1pUmYwAdlByB6yQQoAJcgOy0AZdoslC1Gx89ZP/82EEbHT1oAz2ddvbivJ0tQK3UqL6sP24yV5xEgnFTIEtUrzYtj9FSr7X4W6O9DKkAMOqH4N9dc6CTD6A5UBADWwfDyk0miASEhpyLH4SIiBdEUe/q1CVuRdCPA64qpHRIQVXPxSfrhoJRI0EGySSjTQLM9h6o2Nbhgt2/45A9u2vKzXSuzk/auy8ftDdv2WR9ksJxXycdlHVEEZ0AifNijnMTVqzUrCOfs59/27n2/nettxsu6rcLlsVtsYCVE8Oy6KtNDJsU5ybrdctjSAk1sCGDSjDr53JVQHCAoZ1Dguh6QeETOj+kCBMC47TKnZKEnEwkbYKjIIybkpuWK0iNm4mnrCxJWlWcuuy8htI05Uzn1JuyeF7MQ2uAJFPL0tRT5cj0s7zO23XskluswHOXpu1t5/fYb71ztf3aOzdLOueUp2zOslRgxQ1UT/3QMknGCFw/JULKz6PScPKpWbO02D+NNcKMX2XKOsWYMqUsK2bFoHcjvzgMkCBoEAsJN7LX5ZU8SqTFnFLx8OsabAlf8jirKNtnvGC2X3aQhIRtl3tO7plDZo/LxntozOzBg4F7aMTsYR0fHQ2uPSMUEnf7tNlO5bFrxmyf8htVvlMqBKl0WC0E4IGUcTOeqjvgYuYTSUZYslG2eL3qVFqAtkZusdLEaiU35R9LpmYnT5REREtkcZ7qaiFlvtZVqqOphX5Cg35yo/drvA0vIXFNsdKwLz08al+5d6fFCgftQ+9+q12xUgAThzFV3ormCCZFSjC6M4FQ1nWOEnpuWp6lTTM6ThYloQSG0cmSHZTn4MS0TZUqVhUWKjh5qjxTFRxQ4QLuhQcASbAKhBUZ6aScjvlMys1KdrXnrKuz3XokihbJtbM6QyjCpeXPCzlIKZ5nkSf5oZI6oMWwvhJWiXEmX6Nqt2w3+70vPGGL82X7lUv67G2Xrrd+zE1d507GGrVTC1zhqtKRnOOwWTh6Bg3Hg/y1uQw8N57PM0xz05wIhWcL59pcPGw/Wt1e64Q0mtTPNx6dtq/ds9WaE7vtI+99h10scLEuB0kk3hainJwQ1yXdiotCM2HDAtCwkDWq40FJmGFltGdsxnaNFuzAVMUKMoIqPE2SZItJhcPeYh0g83A8sm5KTRTORPQZhcyytLOxnPRw9xH+EBBVh6Z7dOAgae2yjfo7crIJO21ZT8KGhKrF0l1XyPVnuF63jjZJIxUC2OJM4MuoqyQlaZVrXOC+eUfcPvK5J21Ve9E+cFm3Xb9lnfWpypCLo+JPCXCxhGjuOjz8OA8sVogcLc7xUDg+/mBFtzponiYaTkdw0UPTAtc/P1Gwr9y9zcqju+y33vOzdrl0JlaUokIx9CORpFTZAQFpx1jDnto7ZS+Ol2z3yJRbqTFZrFipkZBtlbVaIivbSHZMMiPwSko4uyjegg6TGoFdxOQFNk5g5AA8QMVvi2Zvu3jE/dWdC9i+ITVPaqwAl0DVq5ctFy9Zb6ZpSwWo/mzc1izvt8X9XTaoUWJphySdUiVYAeJsNpWtbL77gtn/9vmnbH1n0X7zsg5765YN1pVQGaovjyCoC/V+zROA9eQB4wHlzz2wCPMUBg3huKMxMdfD7lSewTtZlFA/ZQWebIIBCbUuZmXditne1zX6uyRmu/f5MfvMbS/Yf77pCfvLf9ljX322YfePZuz5YpuNJgaslBu0eq7Xmqk2SaqEs8syMngysbpsOtZQaHBVGOXwjIuZxbqODQW4B8YqjjuF41WUpEKSgKdR0VEysCkXE1xxkonIRVPetWTWipkeO5gesm31QbtjrMdu2p23//ov++2Pvv60/X93Vu17T0mySnDVVSZKIXYYMGXQYFEy0jQtMSU559osBnL1Ic4pAS5GeA+QMAEACBBwjThzQYYfItxLOeIfDTgeUD69TxvR0SiYnEg43U/SXozGRAS9ikrEdSYrxhT2T7c/bt95cLu9MKX+7VjkmDqebbdYOm9NSSlm8dzLH0rMbQEuKH6xJk62S4txpWa1jgAH6RO4mJwJRMGDbQZiSSqhADbn14HQwQClUJqC1E2LpyjBasoSSdRA4iisKulZTbdbJdNl9z27yz73jR/avrFSIC1dq1Q/9MUakxxlAZY+aPGTYylKafUDp691gslxXoXyAPFg8Q51zvs9uIgTjhcmD7BwOH7ie5BG9AoEP4kp8bhFs+JrZ2vA6Oo71hgWZYccjPXaTNtSq+YGFCEphkSDQMrpnqFuca/EpOp2EfdJzNsCCdP9McXn+RFHUsV1Pd2syrFuoionsEkS4WJyTg1UfGbwABbWWp0FwU3JQLmqkML6RtifV1SSpFWdY42SsCvQaMAoqz2VmHLWQFBPUorwpPrRXOLGqzOWqBUlEXnZkgvwEi6AME1xzTkVyAMEu4V3o7Zv327PP/+87d+/39l4EIAAVB5Qc6UXYMIRPjMz49K+8MILtmPHDuefnp6eBShxPPgiOjo1JWqwg2AmJg2qUt+RAo4DnRND6hwJgSxK8jxLTJlyTCxm1nWecQlObgawKumHutcUALFvSIe0IEvA4v/4jwkcADvmHgSrLOWDdGkI3Q2kFgCWP86RZ04CYlxATiD5XIaBa8IjqjT3m/Y0WI2vY1VSrMT0SSrjJCrt1L+rTymWsVKThxCUjUaEbagLjlym7vSUAReNZ1LgzjvvtB/84Af27W9/2771rW/ZzTffbHfccYc988wzbsrbg+flCHACzLvuusulJZ/vfve7zn/77be7ayy0jaTWsSjgJiYYsImaYtxarerULBiU8dsxJBhzDC3mxvapz1hGNk9TalUDCSXQEBFbCmApllV1DwFYQ6Bh4oJ1HKwXRNIFINM9bgrSAhhqXpAWIEo11a8DFw+sAJacrgpUddleNUk7pVBeDmACs1vtwb0WgqQbKSZWmaRbXOBJSGVNpCzJk2URMQDXjMqbieWsFpO5IhC6iRfYxeWDh2HhNQSuozGzD0MKPfnkkw4AAOuRRx6xvXv3OrA99dRTdvfdd7tr999/v9u/g3ReSnkiDGCRzy233GI/+tGP7LHHHnOvgpDP448/7sJ8/gDs1CU/xr/8H3FeFTng8OZvw1JxSQYdS5WKk1yM9EEZjr/lZBs5tQ4QiHkJA0BS7er1igApqUVkaR6og0gaptB50JtQHCfDlB7GRlpUlE9F6bHGeDiNWkle3OOmE1+ojthiushaJsfqXFOeGgRQK7HbyN8tAo5nBSimTgTgatGyKish8POQmEEg05pil5x0Y0GCbColtUlQFIiRhgGQdFH5sbsUrX/NgCtMc4GG6gYgnn32WXc+V11DlUOtQ6oBkqNJrppUlq1btzrphDrJ28GAFqI8r3aiIiIJicumMqciBb3H78s7fl8tAS6YKy1wwfxFDUgwuyuhdY8AF8tsY7onTHpUZfNgKTnwiNF5/hTjFQ8AoziNuiRataz7I+1BwOM9rxjvewkIrOQo1ePuPa2S4pZ03ys1XoysyJVk80nGgVKFB5McVERyVeK0prAGTve9rrwbLclZUZ1KAlY5lnXAwIZKAiiVHcwyNt12ALQDe5KVW0n5a6Vp8UxN7W+61fDiHgqT8xbXawhcHjAweDCqBUcYHGDt27fPgcYDAkDh93GhQ4cO2cMPP+ze+g0T10dGRuzRRx91Eo98wuX5ssiPawcPHnRScHJy0sU5NYn2vbzj91VRq88x5nmlHqpWxbwwtAgVyh11iau+nyEONUmYmNSquBg7pXvcXZ6wFY1R29JZtMu7Juza7gm7sqdoF/c0bGNH3DoFwt7yqJ0RP2BXdB6ya7vGnLta7sqeSbuiZ8YuVfyL+sq2Ml+1bL1o3Y0x29Axbef3FmxLz4Rd0jdpF/VO2HmKuzw+au3lYctUxi1dK1hC8QEx9a1L5URCsoUAkjlYpSGsyvnnXAzOtJFwx4e0stXYoJWvIXDNJS99YHQvafxsIXT4Rh0JRuIjdTz5cMCJ+kdHhEHJ0fshD7CdO3e6HZv8A+VTibjRx/oLWP7Eyal+cnGnGgYnLE1yExqO1Lf6da7Vv6za4IgEajQkwWpS2eoJS1dqtirTsJ87b6X92ytW24euWGG/ddmQffCSZfZrly+1G87rs2VtWRuoCkyLavbBLQP2kYv77Lcu6bMPXdpvv3npkP3Gpcvs/ZcN2nuv6LbL1w9Yt0TMQHzCrl7fbu99w2L7wBuW2vuvGLJfv3Kpve8Nq+xdW1bYmo6G5WoTlqpNW7pRdipoDSmoWmP7AS7UWcDFYweaBjcgnRn0aRv8kmQhMCcOTs7j6DUDLs/c3Ijw0Usa9pyAwlInDAqOgI9GAzAPCuLUWqtGsMd8Ghwd4/2euM7qEmwu8iFtRC8lD1FmAHnZUR1n1ZZOiF3CkYOC3eh+uJ8BlySccKUUAtYh62uO2dvPW2LXn5+wC1abnbMqI5e3zStjdv5ysw1LzfK5tBi8agNdCTtDcc5emdH1jJ27Mq04SbtwWdwuWma2ZYnZqj6TqpqynKCwpi9lytouXJpRvDY7f0WbXbQqaW+5qNveccVZtihZMpsZd+CpYaPFk87mQ63kyHM8Z8aFQEMzi+WKwCPg6VpKP4evBsT5aw5cEH4YH2LKHIbHASwv0Tx5sBAfYAEqjodv5uEbS1qOc5+X+Xi+DPIgzE/NR3Q0CtgJqcUuS0xWVJjSbl3xzOb87gRQBf3PsVJnkqNqbc1pu3hNr73lnIyt0PjZppg52To5hedl90i4SMUjH5kEMdk4zYKkDK+xVOWKlreC8phRvJLUwKp161bmdT0l1s5KlWyXXdeu8w6NkeTVpusdcoNiryvPTNgbL1pv7Ymqs/PqkqiClWoAlJjwkPzSyOCel7kWBMTjhWIJFRK1kffUXANFHL3/NQSuuUzuifWJHlTh8HB8D0TC8LOiw59DSCIkH9cI8wCCABrhHngQR8LYZ9Dn/dokDRqzt3wOEXw0N8/EAg1WKZB1qdoMqYUBOZtELlhAG6iK6my3XChRKVi3AHLN5pW2NBeAiN5uxpJi6LTuFa/Oqwzy1P1iiVUxkXcvN/Kcy5rkwr1Gq+F5VDJQV8lDP65M2UzkCf8zBZ+Sy0r161AYayAvP6PfFrcnLVEtukR1laFkLhP4IHhIHtSLpVQckdAlwKV2MBeZhK+IFOJPKEj5U6agEQFYPIN7WrZsmWNwz/CewuDiCFgAERu/sBkpoPFEus7OTrfVm0/j80LtI8wDkSPXyGtoaMjt0PRapcM9dWSfzT09gl7p2k9I9BhqEUY//Fhmf8EWuHR3nHpIL7uZNPq91fc89+LZWErSZjAft7X9AlZVEkDSjBjuWRdT4wKXuyvKE/YFcOVEGysDlRVPr4KZx5riOVmje+fWdSgT3UUBizjiKTJxuqquSvrFeXQgMOUF5sWsiO/Ku6l3SnPpiEo75By4lJ4smN5nxrCmAioV1MZglnBWcCkWST0d5tbXAMHYnsk9AYgzzzzTMbwHAQ4wheNzjTh9fX22adOmI/Lh2pIlS2zVqlWzecwlDzaIOOvXr7eBgYEjQHoqUhNOC1Oo6bQT5wn/T6IGkzKQXJIQypgNPFlf6K4oLyQWxTnJpVEedbBRr6n/4dyqWL1u6f4hm5YuuFcC6EA6ZQd0ZVhuv9wBpTug7p9IiqFTaauosGoyZdMKH1W5Izq6eKThXMdROa4Duul4hx2Mp4N8VIn9iZQNx1I2ksjZvlRO52YFScxEx5B+0oKqgCI10j0fAzY6ss/h7L708Yx7qC1oWqFYclByEx7KW8GuD8J0SrxywkzfV77yFTfFThkAwauJXmJR7qJFi+y6666zc88914X5uByJxywi0/rMGpLWX/d+HH5AdcMNN9iaNWucink0MP4ktFCvnATKmMdLKH34juJvXSK+b6s/eqI//QBzPHUhJRB5erhsX7r5XvvhU8O2dP059u9+dqNd2K+8xKQshN2tiP/3Z+6z23c1bDLZF6hn0vNiCYGsPGUr27J20foVlq5OqPy6JJPuiUCUVMSURE6i0rCRRpc9NNy0wsRuW9XXtDV9vdYmKYnEqqgMtuPgsW2D/QMFmJ2HMvbciPKvT9i65b22NJ+wNklJvyKk0RBPuGVOcfd86+Edo7aPl9OSaaupTFa8M2jUS1N28VDT/ubXN9sixljVXcqjPS8U/9k/fM8eGk/bmzZ02e+/cbmtW7bI2WYQfZOgr9XBh3v4VRJZLQS4oG3bttl9993nnlXBCB5QqG2Ui2S68sorbcOGDe4t33Cz8OOYzueBNEufmGonvbe/YCwYfe3atXbppZc6yQXze4Z7NfRTA5c/6hJx+atJctB3UEM6HF/4gOgfPxB5/ysRWQOubQer9uWbf2zfe2LY+laeYf/xXWfZxYsELjFyXVJijyL92Wfvs395sW5TqX6BC2CLcZV/Rjm0lWesM6H+L01KCkjtYgclGFv3Ji3wxMXphXS/JI/SJhUWn7ZmVaqd8mW1Ry2etLTKwjl1T1KxbO3Kv0PMXZQ0KluuVpQ9V9a9Blys6tCASlulhpYk2QvJbqduNlReIOhR9dQPlaJdsjRhf/n+s21A3UQPA65nJSr/9FPfsqemcvaWTd32+z+z3FYtPYXBBQD4wAPPvHhlnml1wIIttXTpUgeK/v5+B7a5qpxvIgzMTCLPr8gHSciDZ4h97RcvXuxUx8HBQZePH81PhPHD9NOUXKg2TvnXZeJrKJG3JbXFAvGWwc45deDorh0nuLaP1ezGm++xbz1+0HJDa+xPfvFcu3wIcEnpk420V5H+8+cfsFu2V2wqPaAy0TgkMRpJa0slJVWStmFxn3UyL1GdEdMHK2cSUv+aAn9cEupANWsP7S3aoWLBEpngGRT2GA96OaYbstAabkWgVDhdFagl8ywnc3m1mH5RW8rSLGWSWkob67C+/DmBmlUlWw+W7fn9E27XXRUu8PIqiVTdaskuW5Gzj/7qJhsUS2Fvzagfn9xn9p8+8XXbXu6wt53d58C1dKhP4FL/0TmiUwZcAAsmJH8AxfQ8z6Hw81EDZvVgVD8ie/LMElZ5/DkgY6EveRBG+vAuuIThjsVkx0M/LXD5fnPTDbpcFROyooJ0tC0pZQqghfvJ9zP0SnUiBuB6cbxmX/nBj+0bjx20Zvcy++ivXGRvWKz+Fuuzw+7eZsz+yxcfsu9vK9ok4JKEIV8A0mEVMW+HvfvNK22p7C72MqRoh3cVreq7gp7W+PeFu0ftkZ0jVkq3K31cqZmcZ1okAcQEqGBhblIOFm8IGCu74vbOazba2ctkuyu/lBz2E3VHQ+R8Ric33jNm3/jxVptJ9bjFuGxIk2StogD5htXt9ufv2eR2f0oonBXxj8jQ+z//x422r9Frb988YL/3xhU2NNAjoB/uL8D16jnnJJBndm4+DMkkB9IFVZAJDEDhmYI4YWbBT3ofBhEXQCKtsNPICz/T9eF48wGsnyZhu2BjwKg1Acs9s9FfXaxNO/XviH6CCPN9hjseoggcmZXKDFSE6kcemJxL7kGszv094X0t5vGscsja6wdtQ4/Z+rzZxraandFW1bFh63S+oUNhXWbLBby8TVisMWNNBiNe81ARLJhlat3dM0mwpsBsAgfbp8WSMcvZjC3NKG/lc0a78srXbFO+bGfl63Z2R9M25Cq2odNsIF2W5JNNJpU5wDP1DJ5z0TbXJudYu6H+kr9aCUDMV1RwkI/mKQh9jZO/2Z7Zw8zA6By+5oEIEe6JeJC/7p3PK5zG+/21U45odqvp2FgQ7Z4sTNqff+zP7bY7bwtA5hg9mOzhGO6v46WkmD1grphbtcDiXPAMm5EbM4U8B+LhEf3JjCHX3AuRrg5lF8eNAfpxW60pvn9w60ApP8+rYO647KdGvSQQVHWtqrDgBcd6U66u8qU5MVFRkNpZKtesKYfGiUupfOrkxJY89QQLdoVxnbDpDSvrUTapmxsA5FKJYG0h8RusnteRnajK0nzIi3WVrn0imh1wTkBB6GucPLP7I4wSjIBHqm2eOTzYwsziwo5y3eflyTOZvzY/1Co39Be+E+4cCoUdH5HOu5cS+TJhUWMU5jwRs66eLvuj/+uP7cO/+2G77ce320x9hqk2MZcY202p44KB51hEqW5tocBF7EpVquDsU+SgTvQgcZSh/gEIjBvcOxrLS5ZIAqcKqr+xCJlUAFB0P9P2zm7UPzON2GzulWflEYsFz61wKJrIZYi1i1W5eILPDgUPouNKoxBdVCYqrIqU0ik9UxUY3YufqkvwnlnQB0yOsCreP8diazWesbFCgxdDqZt7xb8luTy1op88cNGZ3nnyIyY0NxzyTA+jcx1bi1k+3rf68Y9/POs495/oIe5c8mHuQ2ktqqlzmNS45557XB6828UEB7bYbPwWgD15P3YaFJxTR+L5UTkgd6nlElJZ+DwNHBOEA2Bugn4U5uPNkj8/hqOWQU1F4WtBlVpxeI2CJzhNy2fb7Lo3v9HKGqFvuu079lt/+hF7/7//dfv+QzfblP4q+mvEYawAAC4vn5+O1L0hRqfdvmwndWiMQFzl1Q73gTouBq/Tg4s0A5kCmzC4e44kS0lp+JhdIp5ycRyTS24AMoqOKxvHnCqL1PEma/5Syl+9JoAkBOS60pfJVwkSAnVMqIypzKTyz8kG49OsVVXQ4d0tZsRGS+uclRzsoRFQAlWykrQsEyGKzLoLAOcmfFQ27aT/iE/TAD+vxMTjUhPpL91f19MKd0BGoqpRif8k0pV5IxiSyQZGfewayN0MdSYOvz+HfLhX77jmpQqzgrwMyRQ80+e33XabPfjgg/b000+7KfXnnnvOAYRpeqboeU3kiSeecLOK5MFkB5Mc5E29sLXmlunT8QyMd8EAG/kCYsDMtD62WLgNvn76d4Ci493eegQILDBLUI5+5GdEHxsfd3H5aFuuLa+boouKkErqhgZdceJE+nAe3k895EfFoW7UM5aWbaTR+da7f2gHigds98hu+9Htt9pDjz1k3X3dtnjJYqlBMCL/wZ8jzvG6fCD9ys+7VU9v32eP7pm28bLZDRessPW9AgISU1FQux7adtCe3DstC0g2bYuly+JQPjq3tLvd1qwatLIAMCWxMCnHF0fGSmaH5B8vx91uu4+8WLa9EwJ/ul3SKO2YuK4+ZGE922SndC/jEkXxJrYXaKpZe6puSwa7rbtNQJc+d1D14+uV1HNCaJ5QHvt1/uhOs+f2FtzKC9rkptQ1EGRU1/WL2uyas/stC0gVzLC6Z8zs+3f82JLtHXbm8l67ZO0i91lYKBgQlKl68aTNFnINBveMSTzvh8lhfPx88hWGf+ihh2bfKkZSEJ/0joFFPi8cfpyfhvd+HgavW7fOzjvvPDdpQVqueSJvVt3fdNNNDlDUmfwIZ+IEIh+WQZ1//vl29tlnu/wJC+otg1fnxA/qJRfuTU51XijO2L79e216ZlrAylpnV6fl2/OWT+elipz4jrvetvH7S/jCPSScBKB/FF7VaEoZNf09u+MZe/cH32PPDW+TdKlZLpu3TDJjbZl2u+S8i+1Xf+l9dvUlV1necm7s5o92kHOwldks5BwAvnbrg/YPd++27RNmf/PB6+ztZ3S4jy6wBpAHHZ/69jP2uXt22Uisx9WBnZZqKg8J01kt2GBn2irlQ5IguqeqM+sFm8l2SQjZPFJZa8k2O1TNSOKqHglJL0QR+YjVm1IJMwJXWsBw0k06biXNBp4Cb23cOuJFa1f8uOzBSpN18nydUshiHw/pd81U3g422wXqpmXVF25XKaXlZcqskPLWzYvtP/7iOutpSVS2w75za9P+3Uf/h2WHVtgvXrbe/tc3brSuLK+Eqr+5Kcq7xhD105BckAcG5xyRErwl/M1vftO9cQxAueany8PxfXrIA5NyvYQiDmBkVTvqItKM/JgRZGaR69SFdHwvizA2vSkUCu4azudDW/zztQceeMClYZaSY1AHDww59a7P29VNdwMGqYsJRsaGdXPLlsprAMgy3CqubiJx62IqYv0kf6RoSPVpiLmY/Qv+gmsahriqa00rmphIf5SBYlOV6pdpz4jxq3bHfXcojli0UpXkqFixUrSdu3baHXfdZo889ogkWZcNDA2I6dVO1dPP+Ok/IIWxxfS2nfvtsRcP2dhMzd503irbMChQBl3jPsPz5I5xe3j7QUkuniMFz6ZwvBmMOsezpmlJ91Jd4BdADklqjZWSNlGN2ZRwMF3DFlO/sXC2PGExAdHK45Yoj1lKLl2ashRvBldkP8qVmjVJTFVSEqRUKtjEVMkKEqGFetoK1bhNlYpuK+6yyihV0zau+1aR7ZTTPXXLn5TevQWtPDYu7bMrN3W71fos/GXx8HPDNbvlzvvVjz22edUiu2h1nwAr3gy6RD/qa7XvpEouGAmgeMb0fhj7a1/7mlPFiOMZ26dBUvi8uUZa8veAgnyexAunJ4xrOKTXVVdd5SRQAIygXrjvfOc7TiWkTkgtQA1Rjo+DH5uMxcS/9Eu/ZIuHFsvOCMCNlufI96ayVyr9NWymOmM3ffcm+9//4P8QU8vuSMYsmZGqEqvIJkBv9wAVUZYOc7ObS/BOvIkEQRK0SlIiBcknjUCjfEqjvPtItyiT1oguOwEjnJUKhdqMFXnzFoNcf+TVrMJY5K1zSdSejl676tKr7QPv/YBdfv5lkmOBJHMvOKkcJBOq3Ldve8g+fft22zpas4++/zp7x7kDpjHExeFd7htv22kf/97jdsDY+DOnegbLm/K1SbtwSdbedPGZ1p6WVlKtWBL7UIzJdLp79V91eXG0avc8vsdmDu2zczcsskvOWWsdyeCVD6jZTKtNGUlngUTnd+0o2F3P7bSexJRdcdZK27io3z3non20U8Oea3OzJiBXk/a1x7fb/Tv2q2WywyTNkiq7wbZpibL93CXr7T+8fYUtIpnAPS2petMTBfvjv/ykdS9Zbb98zVn2b69VfTJIdP2pb8m/Hj9JkguCOSEYEUbinDhIFoCFfQVTw7wwOLaOj8d5TcAiPgxOOGFc88DxUotruLCfa6TntX3UQOoF0HxdPLGGEQkKsAA05ZGWOL4M7C8kHHbf+vUbrKuzQ9fVbvUpAzwMhXPlw4fq6IpGwWe2PWNf++bXnXpW1nmxWrIiDN4oWFkqSKlW0igq546SN/hfwZUVr8xRrihGKMkVFVYUgEo4+QuFKZXFR7dLdmjqkJU1qrMr0uS01G3W4YkZIGbjmKigHYT49pYk0ba/sMN+dOuPrCHOPefMsy0TT8voVyQNCICZmbPtu/bLJjpkB2UsXbdZzDwkuwgTRNexUV7YP2P3bd1nk3WBXendavVyydpjRdug8fdX3rTWzh5K25mLc7amL2NnLknrmJS9k7ANQwnrbE/Zsy+MW3Fku21Z22Nvv2SxnaPr6/qzLv5q+Vf3m60aMFuh46Fy2p7esdvypRF784Xr7dozsnZOf9zWK94m8hxM2Sr5l/fFbXCR2RO7Crb9gGxipCoqME7SKxkvO8l0xXqp8eoYt0+Irj2xt2i33fuwtXf22Pnrlth5q3rUXvWfejR4RUXtU9vxLTiFGR3y0oZzNpUBYACFFQyAB+aHyQGQB6lnbs/sxPPgADiAgXMPRPykhYjr4/N2MRKKLdQo04McacQECPkDcvL14PXlkq+XaICUQaGC3k6z5NgIxVMQJAlAFyvYv8vEbJrb506JEho5c5U25/LlwOVax2M54uUqWctW0jpmnB+Xlz+vMI6dsiWyUn06Gnn589ZWz1p8uml5MXmmrj6hexyaAteUNOF5D1PZSKe2dJu95bo329//7Sftt3/zw9aZ7wjaqng0C29STUnLwGIZFfMBNfW/Oo7/wOZTnHZJaVaON+lHtl9TPyJl2M7zwHjJpqbNssqsTS4vdTmta13Kt0Npc+pTtmBHSgJoVlW4lyU1mvEypFufKNcl16coSJhOtpxRRbNybaoX31jOKs98nPe5mPjQURXL5FQHlTMyNq6BR+ppRYOVpHldAyArTDI65lK6b4pTlquJh2aUrqD6MzClVZ+MOmB2Jt61WT/qu2Cm8SSQlwCAjI71IGOvQYAFeeYnDg4GJw1pYWiOfpKBPGB8iLikBVQeGADN50O8uWUjoZhtDE+7sxwJcPlz8vNE2eRJ3vhJxyoRJkG2btuquBo81PlONwyqJcYL8gkAlrALzr3Avv+dm+3+ex6wh+57yJ5+XG1/eo/te3K/7X9iv+174oBz+3FPDh/THXiyFe+pkeD4hMIeH7bhWaf8Ht9rI08P24uP7lQ5+2zXk3ts95N7besTz9kf/P5/EJOpdmLUJJUXIzbFwQmpWD3t/Xb9z9xgX/6HL9un/vJTduk5lzhW8QNRwDWM70qrnxTcpbYDLvpatgYRXFfwADYnTk4xTy3GtpoUN0nTTDppU8WK7Rgp2HP7ZC+qu3gex5o+Xr7UDdNRafWTUiZM1ZeVnCVVdDOzkUHPotIyQVFUW2YsVRevSH3jtREkLI/BeNmSfRNR15gxSbBQWE3WOGPP7jF7fudeMhQf8UBc1VRcnnmxF36eVfq0RWUqm6Aeyps/6ppSZRzLuCYj/VvakM5dNy00cVMAADeGoydmAz1QuClh4hyG5jqgIw4AoeLuBosIgwgnDOdBRbywg3w+5O3VT0+EcR3nQQgRH7+vJ37KIX1Cbdm3b6/FW8YsPdqqEqjSqcqW7ZPgmUmDh5kyRGSkJ5Ec+lOINHgNBvJz/En+UpZV6jYdcVLD5DLyZ51jni/njmn9SpbpRmcUL68apmx0ZMpu/NI/seDBrTyPibMlA22wfciuv+pt9rlPfMH+8b9+RvbKG1w+lMc6RJ7XzbaNtooBAWdT0ojtrNmoM3jOpU4gjhx4WtTT6QBVr0ipEhDiUovZZx2GZkX65797t704oSiyU1xPAkAd6EpsKKbped8Ke62odgS6A2DnORrKmAbdGE72WjylbHl2poG6KV6LZdw+iaygdxuNqlLBBJDZQf18+fv32YQKwFaqV9ikRmASqJhoyWi0GOxsd01JquSU2gtQ2Z8RcLn96enEWWpVWs6NtS7sJFOY4ReawiDx4PAAwQEqD07CieNVTPyvTAIqDNZqSpzJAXoUhmO62CUPABaXqpAAYFLHEqhkApjzE6Zb8ZP/MWoHN5AjQ1ZSjJbAyRiKO6eqlHg0q0ENZsT+k333ve99z154/gXZCVITVYfBzkF721XX26f/6u/ti//9C3bV2VcKSgA4rbTsRsEUNyX5e6aGMYDJR2hGamFKQz59WK7W3BvJ2GL0CwKLr9/nxJWofACLR7kNMXI6nbFiPW7bhqfs//2nu2wbX5KsJWw8nrExdeSw8jgoNymAVuoJt5K+FM/ZhArdp3IPKO+DukackUZKLm0jAtVkIyuVU3DQYDYhvW9S9RiTGxaYDiqPsVjWdgnbn/z6M3bv1mFpcVk3SMRb9wmJF9f9Q91c0d+tHqCtus+qd1V4mikGE3EJ9jVUA51aiA6MStgihC/BC06eaWFkz+CefNhCUhhMlOXtMvx0EuEQ5zjA5iXZscgt7VHn84CYdEGgyvRp1TQ3+9aSXh5gqRaw3HelXJwTcMreO1VcPyqfm4z6w9gsKZGIMzPGglPsiLodGN5tX/zyZ2THpq23s9/ecvX19vGPfdw++5f/aG88/xonp/KSDlkklVKRNznPlqT6ugD1qTPeVV5nm+w9qXmswBgePWRlpEYrIWpjt4yeFYu6LVmbce9IqXPFmGLS6YJqXLcpAefuHQX7b9/Yap++/aD9/W0H7B/v3GefvWOvff623fb9+4dtZHzGSuqzp3bssS/fPml/d1fBPn3njH329hn7zG3TchP2GaX97O0H7I4nd9tYoWLjAtYdT71oX7ztkK6P2BfvGJbbb5+6Zaf9l688Yt96aLfNZBZJ3QwGq5RAXSqwaajsP5kAvTLUVi1iZ0UBDukoyYfqOzo24WzMrAaM9lxrEUDQSUfQSZ+K936Ylw08eTOYB8fzWI0jyAMbxgcsHmhXXHGFXX311e4ZlwfXl770JbcMygPPh78sqTnXv+16u+aaawJgqQluDztGsFZboXKxbC/uetHtGIRt14Zr45UTJloEOpg0fIMOJz1OImHLhfqxXpaaw5Z0GpbZja9QK9rff/ZT9nf/+Ck797zz7Fff+2t2zZZrHOsgmZBVrHBgedERdfB+dzycP0S7t714wD5601N2y9MH7br1XfZ7v/wWWz0oZhXGeaTHC4afvWOX/cUXb7aJWJfVM11S0YK+5RkajyKQqPFaSdJC9hA2lPTJhLN3JOUSnVaJdYtZy5aJlyVpYlaUaEzLZsxIpQXvPI6wmNS1eM1KqW4rx9ssR3xJl4byBTHI34ZU2Hg6ZSUNdkWppI2EhpOq7DT1W1HSL52V3S3x1NMYtd9443r79Z/dZO10B7dXVX6ct5C/cKc98dgjdunGIfvNX3yzbVnT6R6IB4Na6xmE6BjcMz8EkHDcCA8yGNdPYjBRwBT3QjomK1D3KBdHHXw9OELUhzjE9+9bzc1nruOe8jCUldGsEIf5mEkKMycrKCAM/UDq6OjiKK50kDoPg3VjOHr/sR2lOM1fvsPObSPtnNTGLDaW7CCko6BTKddt+MC4/beP/ZX9w1//o715yxvFClhT2FSyaTR+u/SeK47IOHDUPFCQ3MSz679e2SWDEk+d6ZgdGJ20fVM1QVlVkAMkTENdevZyW9qJmql6qwz2h3crLcSPDQGkJqkR7xqwyWS7FfODVsgts5n0oJXTPVaJp2WPMUAkbLrZZjOstEjmrJbMWzXVbuVUpxXT3Tad6bUpuaLsLOrGxxQKzbTNJDqswLV0n/IdsvFGp9VSvWqLerI8rrYzySJbUPePba+Tkvb5VNXedt0mN3MpvLpHLTOq7vChGUn/Q1KpU7ZssN8G+/nEuqjFQw6FeLkFYna6bV6IrI5XcuF4gZClTky7LxT5sqgP5QNwGILX+M8444zZZ3GAnzWG1Ik2AHrCfJ2PRlw5//zzbP26dU4NPKKN7jegUrHk8uXoX5TkOV4qI7B7yfUTEqUEShsw9TDD+Ss66pQ2JGQPMRNXYYVDEhnFX8zBCuAw8vOdLDfwUH/HH+QToiBbLjkHIaCxR9hp9x9uf8H+/jsPWL1UsP/lff/a3n5htw1KiCckFSwpG0rS5k8/fad99cF9NtZst0yWbRqAgECtcuvuFf26ZTTg1GSH1WM51ZFvcM0oDuo8z8c0eDHNxxQg0+Wyn5J1gCdNSK6mPOpCAsugEjFWdKimupesQuG5N6/3M4CkpN4BpqYkXSatsmaKshkzAmObtIxp64pP2y9fe6b9+5/baPlqw7KqH4PFpNr7nfv32f/z6VutM9OwD7zjYnvntWdYj7Jj9TxqOCAL5hfVw2II7si8EFkdDVxeYnHz/DlMyHmYIU8WwXCQLx/ywPP1Ol5iPwc+ii2f8lJ6WbcwerCgV3kpv2KpZLulFgKujjC4ZNAnNAIGi37JIaDj7g3P5YE4dOkp0+fggvH4jCFmGJSQkTjupuCDYEcuMvWWHaw/1z8KDKIAx8M1owdxKWVE6A+fn7H/fuOttnXHPrvi4ovsd961xc7qA1xSCtU/M2rn95+YtD+USvXCIQ12kha5tg6bqKTUDywgnLScgJFtVG2mKkmW75M5J1WuIXAxyyorUJ1lVUlCPq6XliRrNllQnRVIqgKobCUHLg0m2LQCI3ad+wCE1EMemlcSGV2XjcRsi1tZg80tr+qYSqWtLAHWmWrY6o4Z+7MPv8vOFft2WlkaiaS+RqDdEw37xP+8zb5+127btHrAPvxv3mAXb9L9VAfI4lRfAi56D2IAOwnETfL2Ds5PFPw0gAVRH5wHEscw+PF7dyyKaRDxHMqmJ464qepatybPsyTigUPLQYSEW9/CyPHTEV1HOYfZn+Ns9VvH4L0oXWFyxT3IVmA4gQLYAo10XPfACgAbEL6wIzIMvHpRh529YsDapAnc+8gztnXnqE2L1+rxnJtjYebynLWddtaSDuuKzVgulbBymUmWhlXLRUuqr3gIP1MRw6ezMpEEGA3UiEe39JgNZiQF3Xe+VDAverp1m2Jod1Q8t40cnC1/rV6RHVdSSuWh28C9bCDFlC9T7Uy0MMLwUJu9L8qVsgBZtWxl0q47e5WpqtauW0uPss01M5aP7pqwHz/6lPXkKrZxWaetWNzuHmq7u04jWx3u70SLG04+eab+aRDlhssOg8wf58Z5WSIKdxvn4pMO9Ur5+D8xNH9BZDkHNO+CG3JCRHKH38P58eeCuOQ9jGXys6bRnRM/FD57VBsYLOKSMgSQ0+G/oAWeXDYwPnkp3WBedtWGpbakv98KZbMf3PWI7T5kspckGTSuIzB7ZHz9wtVn26LEhJtYKAtMaamCKUkoTJW6pE011WUFSR4YlWdOPFdCtYtjcUkCJQUaZiVZDAOoGk0BSCBpNjQQ1DWAV1sLEaTIIc1qkjw1B0BVU3kl5UkqPd/eMp63oTKiySgPPhu0prvN3nvN+bZYxcZlo9ZYTKzSh2W5fOPe52y4WLXl3RW79MwBWyQAMrS6fgFcKpWCgt7iN6IFpTBDtsRAi8JXWoGOYwPvT598ZY4ElScG6eCdNJ3AmALoprUr7czVQxrZ4/bEcy/aIzsmbEJAY0kVq+cZ5a88p8feerFs3YakVQNpwXMvJBQ2l+LWkSyofoRJOgk0wrC7DkCY1IDZ8QcvdCodD3eZDXROV+WEXgeymnPieaIqI6SsLiq74PmkspWEjFlKauLqrpj9xi9cZ4M9qIrkwy68ZgUZXI8/N2oPPLHTkul2O2Ptcjtz/QrX5kD15oeOkEMjcLAKBrmIIvqJyWmXzgOzirl1PjQQsy2bVmhkT9jYTNlufuAZO1gQIJgNEKe550di5ndf/wY7Z9WgtSckUYqTAoeMHcAkyZGozVhagONhs/sUrAoCSLzuwtvBfKiuwnM0FetsedREpU9KEiXrJYEMp/RKi4pLWuccSKUaKrzKSgzZxqzuaCqvRCNlvbJ/37ZlnaRvVhJVzWL/ROXFxMeY9Ntb73rQxierNrBoqZ2/ebMtXpRx4GFAcB3BCMDRjTa4AGIRRfQTk2Ms5xMjMTGiA1Pu564dtAs3DFlHLmn3Pfqk/fDhHbZfoBK/CjRSmcolWyXJ8O43XWCr22tSCYsOWEgSNtNh34sy3/mSzGCqhIkVN8XigCDJIxUPyeakm4CNBPVfJ3ESjgAI9BPmJZbS8T4Y0hIpo1xkf6lOlZItjR+yt583aO+86izrkJ7HS5sF1bOUyNjBes5+8Mg+u/uhbTaQadiWdYvtLEkt9zRLRQV9II9Tjw/DiVpE4IrohMiBCw5i0oapbRG/S7rNrrlgna1fOeTsov956/127/ayFSWcErWiwFWwVLFo12zos1+/4TJb3J3T6M/kUcNNCLHrbSPOxxVSzi/kubx5BwyoJVEjm1XZX+hzYIhp+4Tx9X33AqZqhtUDsJi4QTkLbDdsO9RQVr03rNJIWDqetjbZfjdsXmS/8aaNNpiWpCpPSXUsuan3mXSb3bVtxD79ncdkuXXb5mWddu3m5ba4S21RtZy9RR84cHEMAE0QLgJXRCdMARvBQmIzeYFCUox8xuoldvX5a21lb9oOjB2yr/7gHnvuQMWK8bzFst1WLFUsK9nx5ktW2c9febYtb2sIAFWnurFPO1u1pdmKWkCiFADjgCZOZkddJ7EUBowAGY4ZQOJU47xlnZYkawGe60EO7jrhPNlsqxWsuz5mV509aL/wxi02wPsuUkmr1YqkqFTQeJs9OWJ24y0P28jwPlven7Gr1KbN6/oMjdFbVs5o80R3COwcoAhcEZ0YiZmRKjBSwF5MFqCy1Swv/fCCdYvssk2LLSlb5qHn99s//8sDtneqadP1hMVTeWtWi5Yul+3nLt9oP3/1ebakvzewjWBJ6WvZhiQcexKSP6CQw897VoGyKKkkICcVF8gAHn7LAldF4OJdMRIg5diFl+VNbCHAp4kSAtBgsmpvvWil/erbLrTV/WnZbAXZhEUne5gPGZ02+9S3nrH7nztkXfm4XXrWEtty5lLrVLZ8YDzGxIvKDN6GxqlWLWDhoAhcEZ0gwTqM34EPq8cZMeJONuZc1Jm1y85ZbRet6bXO2Ix97+5H7Mu3P237xLilNNuaCRxi5t50zf7VFZvs31yxzs5ZlLSMbDCgUxVAJM8CcGCxIa0cD4uBdQQEzt9iaJic1faofm6TGYAvQNZikmSsI4lJkknKJOsztjhTsp/dstp+SXbfyn7VpVIIVvGzWiTVY3vKbfa12561H915r+ViZbt4TXvwkby+vPKoCNTUhyGFilATOR2Dt5AP00l7zf/1TDUxG1sMcGS9onc8TA8/VzuVyI/OVNsBy9lAsmV04MuLbK6ZTycsn0nbQamGe0tZe3LPpKVSOVuzottNbjAziOqXqJdtzZI+62hrs5Fi00anyrJxkDxNy7AYV381AS14A0El6989X6NkxQn6D8kp8DiJGtQOQLGtANPwbGPAy41rh7rtZy9cZe+4ZI0t7WKCZSywyWSzNXlFpZazr96912689WGlTdpZy9vt5y4atPNX91guk3JtdS90SnUNFg0E9XAd4fy+9AhcJ4VOS3CpurjZsRr1SIzNyomquJmNe1iY2+4+FG62d6xg45MztmvPXsVJ2aqlg5ZmmYQYm809wc3SoUW2tK/DktUpmxzZI/un7CRPXQBhCVXwIXA5SSSkJlKLfS8Eq1mGdvyuc/gQLzZapjZpnc0pu2x9v/38G860qzcvt4Ecr/GXzCqlYLYx1WmHGu321R8+KRWWbf3GbfOKrF177mI7b+2gVMOMm95PqzHuTQaVeyS4DquErZAIXCeDTkdwefkQgAtfywaThGBludtPvczzp4J1ZJPu+RRbrx2YLNtzO3dbezZhg309bksy9teolgqWl5Ra0W62TtIlIy2uWIvZHtk+rAd0pcgYCr6/jDooUKnvAJd7mC3nDmJr15eqEmCMV0u2tj9j15yz3H7+8g128cq8dSQKbs1iSmppVveglsjY/umYffveffaVWx6xQ2Wz1Us67U1nt9mWdV3WJjUWULWlYu7FUD5vxEJtBy4HKu6dHIfA51wErpNApyO4PHlGmvW1hm8mJwAXawRZv9fVnrdUrGbTMyWbLFXtuT1jdqhYt8H+XgEt6VTDmGwlnmW15bK2cqjPlg90WWeiaoWxA27HLbZjo8/cK/wCHM+jWBKFjTX7VEz9GNd5RrZXr03Ylev77B0Xr7E3nbvMVvbwobyi1VU55hBdRTMd9vyhlNTAR+27sguLsr82DJhdc2avnbeiwwZlO7KvRjqdtXRGbcjkVAe2rFCgs7Fa7Q46wQ02rZAIXCeDTldw+RrD0EH9pS61/M7OcSpfLZBKzRlrS0qqpbI2WorZi9NJAWzU6oVxW9KTt4E2qX31ivpI0kZAa4sVbElnxjYOdVp3Z7tVpR6y0LdYqbiJDmwpJjsACwuiABe4ZrlTu8pZO9hpb968zN550Uq7YFnOhpJTlm4UBGCVgaqZyDnps1Ug/8ItT9mtj+yyogC7uDdt167P2oVLk9afaboNctLZtFvBn0x3CGA53TO1sQUup5Kq6bQ+6I/W6CIXgesk0OktuQKlKGAyOcd0SalvOkiCsEAX6VVj8wnFykm1yiYbVnBfBq3b9n1jtnu8ZJVEm/UOLlMa3gJvuGVPKJrszbFsUa9tXNxpy3rS1p6oW6UwYZXijMoIAKUudPnnmgW36v5nzlxs129eam/YtMQWt/Pemuw/qavVWMoqcfFkussmq2m79bG99k+3P22PbH1B9l9Nkq1uF6/ttk3LJDElTXMCUr6t0/K5Tuvo6LSs7Eea5yZWnNQ6DCX6YPYOalCBInCdBDotwSUAzD7jgZnEbN4Ooyks0mUyAeMfsDi+mJm0rBUtH1e4VKtCpWkj9XZ7YbRsuw5OOVttaW+7U/+YGmdtIHkg9Rani7asN2+rlgzYsqFFlklnrFJmn0G2N2vakAB47Xlr7S3nrbLLV3fZpu6GdcVKFqtOu2VR9WTWSnwlJdlmo9M1u+XHT9o/3b3Dnthfslw2Zku6Gnbh8oydtThjXdm4tedy1tHZY+3tPdbV0RNsu5dQfVS3YMqdYSUg1+aW88CCTtqbyK+GeFsZJmQbapiQG8Xmnvv373cfGOd1e4jyief9uDDThv2+2T7saOfh+K+GFuqzrT9dOpJtnORq+WmJW30uUPEdK3b4nZyYdN+inpiatPHJoh2crtvzIyV7drRuO8eZepdUkrS4cP1Su2TTcjtzaZckUdGSAgfPlViVUWNqPZG1gmXswHTVdg6P2/5x2WIC1+LBflu9qMu6UmwrwJrFYPEuilsjkZa0yttUPWVP7Thg9zz6oj3x/AEbn5qxvIC0tp+dfbO2YTBrvbm49XR3yfVZV0+/tUlydbS1W8ptIdyQ5HKtm23rEW12vsNXTgnJBbjY45CPikMw/oEDB9yng1avXu32vYA8k74cMAijfv562O+JMMjn4/2vhk5LyTXLToE78ixgMbdxp9qH8c8ejzguuN0DZ8as3e1Vwar5qtS0hPu0z/aRKdt74KBNT4xJGvVZTszMfXBSsVoW4EqWEei60mWpfHFb3Z+1jQMZW9Vh1gXsGjOKGKiV7kG1bDz229g7Pm3fueNBu/nep+zxFydtqpay/mzDNvYn7ezBjK3tSdpQR9IWdbVbf1+vBEOPtXV0WzbPdgxMYAQzka51wf9LXECHQ04JcPHVE5iPfS88wyMdkV5r1qxxTMsH8PiWFxKCOrAjLvVg22o+R7Rjxw63pRrSlK+fsNsvDpDC5Hz4jp2fACwSprOz04F2Ppj+9ATXscm3i3b6zX/cUSpdk81jylIP1Q8ALFcZtVxt0qw8bWPTkmjjZrum4zaT7LJUvtPSMdRQqZ6SXthPDemNcR0zYnq3ilDqIVoqW9gZr5EkUtZMd9ueqabdu23MvnPfdrv7qb02VoxZLl4RMMu2ZiBl6xa324r+vA1052ygt8cGBhZZd98ia5NKmMm3W6IFLPASk40XqMIeQK9MpwS4+DAdNwUgcbMo49ChQ25LNj6owL7tgAQVkesAD3Dw9RRAw0fFubFsY+1vNNtZQytWrHBgYltt//Fx1E22XEN1ox2vll6P4PLt8ZoB7aS9tJvpbCQKe49kkjFrE7P3xqatLVa2Rr1qxVje9scGbOdYxbbtHbOR4RHrzietq7dfqmECwWQJAYt9KxL1mvF6f/BqIiGCWoIvnqTsoW377Xv3PGV3PbXHnj1Qks2Vcx8bXNldszMG47ZuqF02XtaGetpsKTs56f53dPVYvrPb0rk2S7Ch/OxtYfKEtfIEoSKeJuBiT3Zu0KpVq9wNYoMZwIXkWrlypdPlYdwzzzzT+vv73Xe4uKl8koi4Z511lvsOF2kIp14jIyPW29vrAMszFJifvPggA9KN+JHkevXk28XRA4x+Zcatu7PDLZFiKiQlZk5m2xz/8FHxdHHYsrUpq1aKbmX903unbB/fK0q36f4JJLLDnA4jlbMmaVVrxK2SkF3VyNpT+wr2/Qeft5vve8ae2zdh5ZmC5RsFW56ZtjO6ynbWEkmswZytGuq15UN9tnRo0PoHBqxTqmC+o8viqbTblctTILjco2sd+TuNwIXk4uagFnrCBkNisT0aMzlIGz5yhwRjZyUc1/k0EUeABgiZ/AA4AAoQ9fX1OSlFfqifOOIA0AhcJ05eYkHh9nHkLeBsOmUZSYZ8Oh7shJWTGp7JuuVS/fmEJNmUNUqHrFSuWKEet32lhO2T3bRr/4i7jylJvVyHBtFE2qqyqVgB8sTOg/bDB5+xOx573h7dMWITxWAJVneqaqu747Z5MG3nL8vZxuXdtmKoW8AakMQKgJVv12Aq0CZUL7fig7q6X4GkBSwPLg+3Y9EpMVvIFycBw/XXX+/O+QgC9hKq3Zve9CYHYpiXcDoegKHuIZ1Q+VAXYWYI4LBPIt/X4nOsXIPBCSMujnyXLl3qJBkAe7VEnqffbOErk2ercLtmw8SkqFnu3Q6dlasNG58u2mShZOMTU+6+jY4M2/7RQ7Z3dMKeHy7YeJ1Zwpyb8UtKpWRA3bB8wM5dv1ySK2GPPr3Vnt2+W3Zc3fLNolMxeW2lT0BdIRCtXDJgS3o7bGl/lw30tFtPFzsfdwhMGal/cmzv1iJq7JyrrgeUTqg/7TnOe3VKSC4mIJiYwCZilOP8ySefdAwKCPATxswhZXtbjAkMJBKqHgSguE69+BQrdhkSik+yYpvxDWXyx/4inMGBdrxaej1KLt+mMMgOt5Np+uD1FB44s1aPe9KWz6n/89bRlhPzd1h/V87t194re6stwX4YTStbxqYbSRupJG3f2KQ9t2uPPfL8Htu6f9ym+eiXBvXeTNVWdpltXt5pW9b121lrhmz9qsW2dtVy2VUD1i9zoKezx7L5DqmAGVVBsqnV/TwTY7bdSSkZd8FAIB4gAo76t+Iei+ZFcvksOAIuJBeMw4xd0JmvjgAEM4FIK58fttXll1/uJBFqH7vlAiZUPOwoJBKAIx1ggYkBy7nnnuvqSV4AkOl9JMqDDz7oRkzqDxg3b97s1Mf5qD/fF5sruagnAEPCH2a61wkxI9GaHDBe53esLOJH/V+rVV1f0W+TGhxHxiftgKTYntEp2zUy4Z5v7R2bthmBrBzPugW92G2dyZot78nb2hVDtnyw15ZISg32dFhfR8468xkBOGPJRMpymbxUv6QDCdviu2l+qtJyvLkcDABcIKSlBvpIxzneLohayMSBVwvni2nobC8RIdQ1VAPAwKQFQPIqFkwL6LwUxYXTUE/3fS3Fx0HkTz4+PY54XrKcKJEHeWP7wSwAFoeE9NKL/Oern14r9Eps5aRBDAaGhd1etc6xJ0ccdVHgY3V9VfeDTxLNFEtWmC7Y1PSU00qY4NgzPGo7xiq2r5hwC4IHu9ttVV/W1i7qsN4BptK7rZN+lkRsT7PkSpII3olxPzERBGh1uQcW5HHDE7JgAIAInTOBcZy3al4lF+TBBSPPl80FUQYM6AGAQ1JRjr/mGZRz72BejpC/Dug8EebTe/JlvFpgeZoLLiTX6xlc6m3HoMQIs3AYXLOSA5+8vCPGJ3KZ4JiakW02OWWHZKfNVFjGW7fu9rx1tQtI2ZTl1bf5XN4yKdY4KhPvkEkCV7BQC+enKYIBmzo44Lu6t5y7L6QI1joGZ8HxWDTv4IIxw5JrLuOeCAEGGN2X4/ML543fg8JLIyichuuQl34Q4XPzhcJ5v1oCVGFwASwkKOBicKCc+SrrVCB6mzvhuYaWO6cAmPuw5CCAK7pfEjOoj+woxe3CNhLztuyjlmKp++qsJOdlhb7yYD9El7l+pIJSLp9VYHO14AK84J1IaYNwDrw7RlAYji+RYy9LrRxfHYWZA6b0zlM47EScBwMg8+V46QNgiEM4gAZYXCOco7/m8/F+iKMHHOTPw9fnw/l64DxRD9+W1yPRcpiUOTpWWHCHUdPq6hO334WAEFxRLN48dkupYpYSmnjwzHe/eIExleTZmexWdx01XzkprKZDnQW2vMVMfi2AeLAENcAFIQ467va0wuETxQtcQAHw/dmxiVLmjcIM5BnHM9GrcRAM6iUSAJgbJ1w2ICKuBxNpcf6aD8d5P8SRdOE2zIcLl+Hr6a+9HolWcycd8yGh6I9WOMSdCubpAJZiIbWCaLNx6LpgTw1OggDsNB8PIh/kU7CJTcAjAfHkCrsL0OGUAcj2xKkO3kHUNYBoUNzx0LyCC/LMREPC0uPVOJ9vmPw5ZfkyfNjctMTxEg2bMJwnjnOueanlwyGfz4m6o+UZkfq/yQ5KsL6o1S8wI6DDuSDHna1rUtE8lpiSZ4O1wI5C7ZP2gV/xwWJK525lvOBFGkCGFEsonM3VyMYpkk2V5JyXkGQAqA+TqxNZy6FltuZhjovmfbYQJsXmgol5dgFzvVoiT+wTJjBgUNQ/DyiOgMeTP+cazoMKP+H+GmGQDydf/NSX/PHjXi2RL2UxzU/9vc2Fw96ifq8/4Knv3dZkIqeyhdpOl+vU9zyY4T7wzEk3ig51WwggaBIK481i1EZe0uR2ub50NhuAQ0IFGwBAvLkc5Mymobocco5aHl825PALcXQF6OhRfgxakAkNpr5ZUcGqB/wADQbzDP16I8ccuumAiedbHlwMGH5gmAswn+ZUJ/iBAcQTvJBkUwq1j0/3xDWQzXK1CB6h3WwR4I5+sGvxD6+teG5zMkbxgvPDeQSypxWONFIIW6slQIqiKUsFM6CqPCE1AVjwt8rGVavUk2eQxGHAlseX0Toci+YdXFSQZ0hMPwMuZshwhBFvHoo7pcjfLG4Uz978antmC+fOFPrj6UTcb9qF1A6YNZDkEAMLfuJ4DcNrFjg/8IR5JuznuteMwgCGwkAB0MTFT3ofDk9yDyCvsUC+Hp645usVDj8WzTu48NMYJBYA88Cigr4j56HIU4q4IdxEJBWqsp+G98zm3elG3GffrrAf8swfDudI+Fw/BHg874QZPBw/fAyTL8OXCeEnHx/u8/RAIhz/y5V7PDSvNhdERXEeYAArrBbOLW6ei39NETcIx03hJgEmQIbDT5i/Yf6mny7EvcY0YEUF9zhQB4P28yYCUtyHIdXoBxxxfZ/4dGhA9BVp4SnSko4yOGe5HXxGOGtCGcBIx+BOGkACMaj5+wERh3wpn8GO8vx9wI+DKJ88WIsart+xaN7BRXYeSFSeSuE8sOYW589PN+YK01yAcTydgQVxvz/5yU/axz72MddOPyHFms+/+Zu/seXLl7t4tB3nAUC/hHmEN8i//vWv25YtW9xa0HvuucetD2U/FYD71a9+1b74xS+6CaONGzfaBz7wAbv22mvdK0jf+MY37KqrrnIvzQK0q6++2i3O9v3N0QMMPwD1IKM+hAPer3zlK24B+Ac/+MHZuMdDCwIu78KA8i5M/vx4K3uqE0zmHW327nSlv/3bv3WM/Tu/8zvOzoQxIfiCdgMIv80Ci6WRDDAzYTA9YOQVIpibRdqAhrTkBfMDLN5oeM973uPe63v88cftW9/6lp1//vkuv29/+9sOUAAaYqaWcnkjgnqRFy/gkh/mC+HwJJIQKbdkyRK3ZvVTn/qUk16/+7u/6yTj8d6zeX/lxDNM2IWZyjs6NHw8Xd1cSeWd75vTlWDShx9+2EmMSy65xDGrH2BxMPJf/MVfOMn2zW9+06lvmzZtclsxfPSjH3UgwXnpBMjoy/vuu88dUTnZuOiCCy6wiy66yPUlb5YDAvInDq8pAR7emGCPFcCCdPq7v/s7++u//mv7/Oc/72ZteYuCF23/4A/+wL1F8Vd/9Vf23e9+14GUV5H+6I/+yL3jxytNvO1+vHR8yuMxiMbMJc88OJjJMxjOM1yY8U5XN7cfwuenM9E+pA+vAwEI1Lm7777bqVf0A4BCQvEi7Gc+8xknZR544AGXDr54+9vfbjfddJNTxT784Q/bb//2bzsgeV5D8pA/6iXAJB3Ht771rc5h1/n+Dh9vvPFGZ5uhauKnXN4+5xqvHb373e92db3sssvs1ltvtUsvvdT++I//2D70oQ/Zu971Llf28dK8gIuKH418gzxxPjeuDztdHe33zoe9nghA/cmf/ImTCn/4h3/opAmgwJZ6y1ve4lQy3hrHNkKto59gfv+CKwSgPB+FB3KkIY82fJg/Ehe10afjiEPasWUE0gsgs5gaVREpShh1QIoBUvZdCZcZdsdL8wKuY9HrjaEiChgSyc1ojwRCCvzoRz9yL6FyjTezIRiYeLxYiw0EwdxIHuLBO1z39jvnHImDCoj04xwiL4DCZIYHF0DmiDT0cW6++Wankn784x93dh/AgigTNZGyKNNPspAGW5Cyfdjx0EkBF0TFXo/u9UwwtR/9YVbOYU5m5JBW2DMwLUBjz0hsJk/htBDn9KcPQ8IASGwl7DKucUTNu+2225z6Gb4HfrqdrSI+8pGPuJlE1EKmHJgs8Uv1KMeDGUD6cgmDPEiPh04auCJ6fZGXQp45OYYZlskCgPG5z33OTaUzW3fFFVe4a2ECTEyKMNHApAYAIIxpeSYXkFzYT0x6fOlLX3LqJiol6h7kgcIRNRIbii0eSPPZz37WPvGJTzhVFemFNPT1pAxfd+qMXcbM5Nz6vRLN+2xhRBFBMCeShKlrpsJh0DDDIrlgYmblAA0TBkynEwaYkEyk5Zz9KQENu3ERRlr2UGH2j3yx65gRBHg33HCDeyYGIRWZ8EBiMc0P6KgLU+233HKLmwF83/ve5wDnQYWtBciQpqiIPDsjX/JnMyS/pfrx0Lw/54ooIsiDCIbl6KUXjAogCOcciYJdRJhXy/D7PPzRp/dp/DXI+4njyft9+ZBPjwPokL/Gkbg+nLp4qecpPDgcD0VqYUQLRmHG9EzugRFmUs/QXAtfh7zfx/dxIR+HsJdj+HBaiLiAl/O5aXx+HKmH9/tyw/kcD0XgimhBKMzMMGWYcbnmQeTDvB/iunekJ64HEM7n4f0+jaew36eFjlZGmMKA8uTLPRGK1MKIIlogiiRXRBEtEEXgiiiiBaIIXBFFtEAUgSuiiBaIInBFFNECUQSuiCJaIIrAFVFEC0QRuCKKaIEoAldEES0QReCKKKIFoghcEUW0QBSBK6KIFogicEUU0QJRBK6IIlogisAVUUQLRBG4IopogSgCV0QRLRBF4IooogWiCFwRRbRAFIEroogWiCJwRRTRAlEErogiWiCKwBVRRAtEEbgiimiBKAJXRBEtEEXgiiiiBSGz/x//huUvGnfttQAAAABJRU5ErkJggg==;" vertex="1" parent="1">
          <mxGeometry x="-260" y="335" width="215" height="153" as="geometry" />
        </mxCell>
        <mxCell id="mKCqIFvBR12Fy3WNBB5l-95" style="edgeStyle=orthogonalEdgeStyle;rounded=0;orthogonalLoop=1;jettySize=auto;html=1;entryX=0;entryY=0.5;entryDx=0;entryDy=0;entryPerimeter=0;" edge="1" parent="1" source="mKCqIFvBR12Fy3WNBB5l-94" target="mKCqIFvBR12Fy3WNBB5l-28">
          <mxGeometry relative="1" as="geometry">
            <Array as="points">
              <mxPoint x="30" y="400" />
              <mxPoint x="30" y="400" />
            </Array>
          </mxGeometry>
        </mxCell>
        <mxCell id="mKCqIFvBR12Fy3WNBB5l-96" style="edgeStyle=orthogonalEdgeStyle;rounded=0;orthogonalLoop=1;jettySize=auto;html=1;exitX=0.5;exitY=0;exitDx=0;exitDy=0;entryX=0.5;entryY=0;entryDx=0;entryDy=0;entryPerimeter=0;fillColor=#f8cecc;strokeColor=#b85450;strokeWidth=2;dashed=1;dashPattern=12 12;" edge="1" parent="1" source="mKCqIFvBR12Fy3WNBB5l-14" target="mKCqIFvBR12Fy3WNBB5l-28">
          <mxGeometry relative="1" as="geometry">
            <Array as="points">
              <mxPoint x="440" y="240" />
              <mxPoint x="91" y="240" />
            </Array>
          </mxGeometry>
        </mxCell>
        <mxCell id="mKCqIFvBR12Fy3WNBB5l-97" value="" style="group" vertex="1" connectable="0" parent="1">
          <mxGeometry x="45.5" y="361" width="91" height="108" as="geometry" />
        </mxCell>
        <mxCell id="mKCqIFvBR12Fy3WNBB5l-28" value="" style="sketch=0;points=[[0,0,0],[0.25,0,0],[0.5,0,0],[0.75,0,0],[1,0,0],[0,1,0],[0.25,1,0],[0.5,1,0],[0.75,1,0],[1,1,0],[0,0.25,0],[0,0.5,0],[0,0.75,0],[1,0.25,0],[1,0.5,0],[1,0.75,0]];outlineConnect=0;fontColor=#232F3E;fillColor=#8C4FFF;strokeColor=#ffffff;dashed=0;verticalLabelPosition=bottom;verticalAlign=top;align=center;html=1;fontSize=12;fontStyle=0;aspect=fixed;shape=mxgraph.aws4.resourceIcon;resIcon=mxgraph.aws4.site_to_site_vpn;" vertex="1" parent="mKCqIFvBR12Fy3WNBB5l-97">
          <mxGeometry x="6.5" width="78" height="78" as="geometry" />
        </mxCell>
        <mxCell id="mKCqIFvBR12Fy3WNBB5l-29" value="Site-to-site VPN" style="text;html=1;align=center;verticalAlign=middle;whiteSpace=wrap;rounded=0;" vertex="1" parent="mKCqIFvBR12Fy3WNBB5l-97">
          <mxGeometry y="78" width="91" height="30" as="geometry" />
        </mxCell>
        <mxCell id="mKCqIFvBR12Fy3WNBB5l-98" style="edgeStyle=orthogonalEdgeStyle;rounded=0;orthogonalLoop=1;jettySize=auto;html=1;dashed=1;dashPattern=12 12;fillColor=#f8cecc;strokeColor=#b85450;strokeWidth=2;" edge="1" parent="1">
          <mxGeometry relative="1" as="geometry">
            <mxPoint x="1039" y="590" as="targetPoint" />
            <mxPoint x="90.00000000000023" y="469" as="sourcePoint" />
            <Array as="points">
              <mxPoint x="90" y="920" />
              <mxPoint x="1040" y="920" />
              <mxPoint x="1040" y="690" />
              <mxPoint x="1039" y="690" />
            </Array>
          </mxGeometry>
        </mxCell>
        <mxCell id="mKCqIFvBR12Fy3WNBB5l-101" value="Local Network" style="points=[[0,0],[0.25,0],[0.5,0],[0.75,0],[1,0],[1,0.25],[1,0.5],[1,0.75],[1,1],[0.75,1],[0.5,1],[0.25,1],[0,1],[0,0.75],[0,0.5],[0,0.25]];outlineConnect=0;gradientColor=none;html=1;whiteSpace=wrap;fontSize=12;fontStyle=0;container=1;pointerEvents=0;collapsible=0;recursiveResize=0;shape=mxgraph.aws4.group;grIcon=mxgraph.aws4.group_on_premise;strokeColor=#7D8998;fillColor=none;verticalAlign=top;align=left;spacingLeft=30;fontColor=#5A6C86;dashed=0;" vertex="1" parent="1">
          <mxGeometry x="950" y="310.32" width="290" height="265.5499999999999" as="geometry" />
        </mxCell>
        <mxCell id="mKCqIFvBR12Fy3WNBB5l-102" value="On Premise" style="points=[[0,0],[0.25,0],[0.5,0],[0.75,0],[1,0],[1,0.25],[1,0.5],[1,0.75],[1,1],[0.75,1],[0.5,1],[0.25,1],[0,1],[0,0.75],[0,0.5],[0,0.25]];outlineConnect=0;gradientColor=none;html=1;whiteSpace=wrap;fontSize=12;fontStyle=0;container=1;pointerEvents=0;collapsible=0;recursiveResize=0;shape=mxgraph.aws4.group;grIcon=mxgraph.aws4.group_on_premise;strokeColor=#7D8998;fillColor=none;verticalAlign=top;align=left;spacingLeft=30;fontColor=#5A6C86;dashed=0;" vertex="1" parent="mKCqIFvBR12Fy3WNBB5l-101">
          <mxGeometry x="20" y="39" width="250" height="170" as="geometry" />
        </mxCell>
        <mxCell id="mKCqIFvBR12Fy3WNBB5l-108" style="edgeStyle=orthogonalEdgeStyle;rounded=0;orthogonalLoop=1;jettySize=auto;html=1;fillColor=#f8cecc;strokeColor=#b85450;dashed=1;dashPattern=12 12;strokeWidth=2;" edge="1" parent="mKCqIFvBR12Fy3WNBB5l-102" source="mKCqIFvBR12Fy3WNBB5l-103" target="mKCqIFvBR12Fy3WNBB5l-106">
          <mxGeometry relative="1" as="geometry" />
        </mxCell>
        <mxCell id="mKCqIFvBR12Fy3WNBB5l-103" value="AD Server" style="image;aspect=fixed;html=1;points=[];align=center;fontSize=12;image=img/lib/azure2/identity/Azure_Active_Directory.svg;" vertex="1" parent="mKCqIFvBR12Fy3WNBB5l-102">
          <mxGeometry x="30" y="49" width="70" height="64" as="geometry" />
        </mxCell>
        <mxCell id="mKCqIFvBR12Fy3WNBB5l-106" value="File Server" style="sketch=0;pointerEvents=1;shadow=0;dashed=0;html=1;strokeColor=none;fillColor=#505050;labelPosition=center;verticalLabelPosition=bottom;verticalAlign=top;outlineConnect=0;align=center;shape=mxgraph.office.servers.file_server;" vertex="1" parent="mKCqIFvBR12Fy3WNBB5l-102">
          <mxGeometry x="180" y="53" width="45" height="56" as="geometry" />
        </mxCell>
        <mxCell id="mKCqIFvBR12Fy3WNBB5l-105" value="" style="shape=image;verticalLabelPosition=bottom;labelBackgroundColor=default;verticalAlign=top;aspect=fixed;imageAspect=0;image=https://www.solaceglobal.com/wp-content/uploads/2024/02/FTNT-745f92ba.png;" vertex="1" parent="mKCqIFvBR12Fy3WNBB5l-101">
          <mxGeometry x="53" y="229.6799999999999" width="64" height="45.87" as="geometry" />
        </mxCell>
        <mxCell id="mKCqIFvBR12Fy3WNBB5l-107" style="edgeStyle=orthogonalEdgeStyle;rounded=0;orthogonalLoop=1;jettySize=auto;html=1;exitX=0.5;exitY=0;exitDx=0;exitDy=0;dashed=1;dashPattern=12 12;fillColor=#f8cecc;strokeColor=#b85450;strokeWidth=2;" edge="1" parent="mKCqIFvBR12Fy3WNBB5l-101" source="mKCqIFvBR12Fy3WNBB5l-105" target="mKCqIFvBR12Fy3WNBB5l-103">
          <mxGeometry relative="1" as="geometry" />
        </mxCell>
        <mxCell id="mKCqIFvBR12Fy3WNBB5l-109" style="edgeStyle=orthogonalEdgeStyle;rounded=0;orthogonalLoop=1;jettySize=auto;html=1;exitX=1;exitY=0.75;exitDx=0;exitDy=0;entryX=-0.006;entryY=0.606;entryDx=0;entryDy=0;entryPerimeter=0;fillColor=#dae8fc;strokeColor=#6c8ebf;strokeWidth=2;dashed=1;dashPattern=8 8;startArrow=classic;startFill=1;" edge="1" parent="1" source="mKCqIFvBR12Fy3WNBB5l-14" target="mKCqIFvBR12Fy3WNBB5l-103">
          <mxGeometry relative="1" as="geometry">
            <Array as="points">
              <mxPoint x="570" y="433" />
              <mxPoint x="570" y="530" />
              <mxPoint x="920" y="530" />
              <mxPoint x="920" y="437" />
            </Array>
          </mxGeometry>
        </mxCell>
        <mxCell id="mKCqIFvBR12Fy3WNBB5l-110" value="&lt;b&gt;&lt;font style=&quot;font-size: 14px;&quot;&gt;Replication&lt;/font&gt;&lt;/b&gt;" style="edgeLabel;html=1;align=center;verticalAlign=middle;resizable=0;points=[];" vertex="1" connectable="0" parent="mKCqIFvBR12Fy3WNBB5l-109">
          <mxGeometry x="-0.0115" y="-1" relative="1" as="geometry">
            <mxPoint as="offset" />
          </mxGeometry>
        </mxCell>
      </root>
    </mxGraphModel>
  </diagram>
</mxfile>
